<?xml version="1.0" encoding="UTF-8"?>
<svg width="587" height="692.41" version="1.1" viewBox="0 0 155.31 183.2" xmlns="http://www.w3.org/2000/svg">
 <defs>
  <filter id="filter81869-6" x="-.011188" y="-.048198" width="1.0224" height="1.0905" color-interpolation-filters="sRGB">
   <feFlood flood-color="rgb(172,124,26)" flood-opacity=".49804" result="flood"/>
   <feComposite in="flood" in2="SourceGraphic" operator="in" result="composite1"/>
   <feGaussianBlur in="composite1" result="blur" stdDeviation="0.3"/>
   <feOffset dx="0" dy="-0.1" result="offset"/>
   <feComposite in="SourceGraphic" in2="offset" result="composite2"/>
  </filter>
 </defs>
 <g transform="translate(.26458 .26464)">
  <g transform="matrix(.99871 0 0 .99871 -192.28 -43.15)" fill="none" stroke="#e6a522">
   <g fill="none" stroke="#e6a522" stroke-width="7">
    <g transform="translate(-52.542)">
     <path transform="matrix(-.13229 .22914 -.22914 -.13229 415.16 90.024)" d="m399.24 393.09-90.792-52.419v-104.84l90.792-52.419 90.792 52.419 1e-5 104.84z"/>
     <path transform="matrix(-.13229 .22914 -.22914 -.13229 388.89 135.53)" d="m399.24 393.09-90.792-52.419v-104.84l90.792-52.419 90.792 52.419 1e-5 104.84z"/>
     <path transform="matrix(-.13229 .22914 -.22914 -.13229 441.43 135.53)" d="m399.24 393.09-90.792-52.419v-104.84l90.792-52.419 90.792 52.419 1e-5 104.84z"/>
    </g>
    <path transform="matrix(-.13229 .22914 -.22914 -.13229 415.16 90.024)" d="m399.24 393.09-90.792-52.419v-104.84l90.792-52.419 90.792 52.419 1e-5 104.84z"/>
    <path transform="matrix(-.13229 .22914 -.22914 -.13229 441.43 135.53)" d="m399.24 393.09-90.792-52.419v-104.84l90.792-52.419 90.792 52.419 1e-5 104.84z"/>
   </g>
  </g>
  <g transform="matrix(.99871 0 0 .99871 -323.14 -.42935)">
   <g>
    <g transform="matrix(.26458 0 0 .26458 301.83 9.639)" fill="#202731">
     <path d="m281.81 656.49h6.053 16.281 23.691 28.282 30.055 29.01 25.146 18.465c2.988 0 5.977 3e-3 8.965 0 4.643-5e-3 9.249-0.58 13.72-1.847 5.831-1.653 11.351-4.401 16.175-8.07 4.795-3.646 8.897-8.164 12.056-13.294 3.198-5.193 5.407-10.997 6.471-17.002 0.542-3.055 0.755-6.138 0.755-9.237v-5.06-9.572-13.638-17.258-20.431-23.158-25.438-27.273-28.66-29.602-30.097-30.146-29.748-28.904-27.614-25.877-23.694-21.065-17.989-14.467-10.499-6.084c0-2.04-0.03-4.075-0.23-6.108-0.589-5.995-2.282-11.857-4.991-17.238-2.743-5.448-6.524-10.373-11.078-14.43-4.486-3.997-9.697-7.147-15.321-9.262-5.477-2.06-11.293-3.086-17.141-3.11-2.171-9e-3 -4.342 0-6.513 0h-16.629-23.927-28.406-30.067-28.91-24.935-18.141c-2.843 0-5.686-5e-3 -8.529 0-4.866 9e-3 -9.7 0.663-14.363 2.071-5.767 1.74-11.185 4.549-15.937 8.25-4.782 3.724-8.852 8.357-11.942 13.57s-5.202 11.007-6.173 16.989c-0.467 2.876-0.641 5.77-0.641 8.679v5.248 9.743 13.791 17.392 20.548 23.257 25.52 27.336 28.706 29.63 30.107 30.138 29.723 28.861 27.553 25.799 23.598 20.951 17.858 14.318 10.332 5.888c0 2.19 0.054 4.372 0.289 6.553 0.652 6.046 2.462 11.962 5.284 17.347 2.804 5.351 6.611 10.165 11.167 14.132 4.556 3.966 9.848 7.075 15.534 9.115 5.296 1.901 10.855 2.82 16.475 2.869z" fill="#202731" stroke="#202731" stroke-linecap="round" stroke-linejoin="round" stroke-miterlimit="10" stroke-width="2.5"/>
    </g>
    <g transform="matrix(.26458 0 0 .26458 301.83 9.639)" fill="#e6a522" stroke-linecap="round" stroke-linejoin="round" stroke-miterlimit="10">
     <path d="m303.6 110.53c1.318 7e-3 2.581 0.62 3.387 1.667 0.871 1.132 0.888 2.384 0.888 3.743 0 2.02-0.032 3.946 0.655 5.873 1.188 3.33 3.951 5.96 7.335 6.984 2.364 0.715 4.958 0.483 7.395 0.483h18.721 27.332 28.731 22.976c3.277 0 6.556 0.033 9.833 0 3.307-0.033 6.471-1.452 8.615-3.991 1.111-1.316 1.912-2.885 2.326-4.557 0.542-2.19 0.031-4.413 0.383-6.606 0.386-2.401 2.469-3.596 4.729-3.596h10.732 13.116c2.081 0 4.152-0.034 6.215 0.297 4.754 0.765 9.221 3.016 12.663 6.382 3.455 3.379 5.808 7.81 6.674 12.564 0.329 1.806 0.379 3.619 0.379 5.446v5.605 9.742 13.485 16.894 19.865 22.356 24.514 26.277 27.644 28.715 29.295 29.375 29.158 28.547 27.631 26.131 24.411 22.13 19.538 16.552 13.208 9.379 5.215c0 2.148-0.138 4.275-0.637 6.375-1.123 4.724-3.735 9.043-7.393 12.235-3.585 3.128-8.106 5.112-12.835 5.635-2.179 0.241-4.414 0.142-6.603 0.142h-13.634-21.105-26.089-28.794-29.16-27.273-22.856-16.239c-2.388 0-4.777 7e-3 -7.166 0-4.126-0.013-8.178-1.032-11.77-3.081-4.28-2.442-7.723-6.232-9.75-10.722-1.406-3.115-2.067-6.473-2.072-9.883-2e-3 -1.279 0-2.559 0-3.838v-8.129-12.03-15.536-18.646-21.438-23.772-25.617-27.143-28.274-29.009-29.45-29.393-28.84-27.991-26.747-25.19-23.066-20.7-17.798-14.575-10.956-6.958c0-0.839-4e-3 -1.678 0-2.517 0.025-4.721 1.435-9.365 4.112-13.263 2.778-4.046 6.819-7.162 11.442-8.812 4.729-1.687 9.673-1.366 14.61-1.366 6.711-3e-3 13.419-3e-3 20.127-3e-3z" stroke="#e6a522" stroke-width="2.5"/>
     <path d="m405.94 118.03c-0.022-2.549-3.286-3.784-4.955-1.822-1.658 1.949 0.067 5.009 2.593 4.599 1.353-0.221 2.35-1.414 2.362-2.777z" stroke="#00b9d2" stroke-width="0"/>
     <path d="m360 116.16c-1.536 0.017-2.434 1.836-1.463 3.047 0.819 1.021 2.489 0.703 3.63 0.703h21.353c2.123 0 4.273 0.098 6.395 0 1.328-0.061 2.381-1.291 1.806-2.619-0.572-1.322-1.991-1.131-3.166-1.131h-9.038-19.137-0.38z" stroke="#00b9d2" stroke-width="0"/>
    </g>
    <g transform="matrix(.26458 0 0 .26458 301.83 9.639)" fill="#202731" stroke="#202731">
     <path d="m518.81 219.74c-0.351 0-1.688-0.181-1.875 0.056-0.083 0.105 0 0.63 0 0.759v3.741 14.101 33.493 5.294 1.581c0 0.166-0.096 0.725 0 0.87 0.127 0.191 1.435 0.252 1.68 0.106 0.297-0.177 0.102 0.081 0.195-0.312 0.216-0.914 0-2.148 0-3.082v-30.794-25.396-0.417z" fill="#202731" stroke="#202731" stroke-linecap="round" stroke-linejoin="round" stroke-miterlimit="10" stroke-width="2.5"/>
    </g>
   </g>
   <g transform="matrix(.26458 0 0 .26458 301.83 9.639)" fill="none" stroke="#202731" stroke-linecap="round" stroke-linejoin="round" stroke-miterlimit="10" stroke-width="2.5">
    <path d="m233.06 255.44c-0.311 0-1.672-0.199-1.863 0-0.045 0.047 9e-3 0.199-0.012 0.268-0.176 0.572 0 1.488 0 2.082v8.635 21.456 3.381c0 0.298-0.181 1.356 0 1.609 0.121 0.17 1.747 0.171 1.875 0 0.18-0.241 0-1.321 0-1.609v-19.163-16.372-0.287z"/>
    <path d="m233.06 206.1c-0.311 0-1.672-0.199-1.863 0-0.045 0.047 9e-3 0.199-0.012 0.268-0.176 0.572 0 1.488 0 2.082v8.635 21.456 3.381c0 0.298-0.181 1.356 0 1.609 0.121 0.169 1.747 0.171 1.875 0 0.18-0.241 0-1.321 0-1.609v-19.163-16.372-0.287z"/>
    <path d="m233.06 167.98c-0.316 0-1.673-0.201-1.875 3e-3 -0.078 0.078 0 0.609 0 0.715v4.317 11.69 1.942c0 0.157-0.105 0.813 0 0.937 0.104 0.123 1.491 0.15 1.68 0.042 0.271-0.155 0.152-0.011 0.195-0.428 0.128-1.248 0-2.579 0-3.833v-6.06-9.325z"/>
   </g>
  </g>
  <path transform="matrix(.99871 0 0 .99871 -95.901 -20.086)" d="m205.67 180.39v11.047c0 3.3053-2.6609 5.9662-5.9662 5.9662h-52.425c-3.3053 0-5.9662-2.6609-5.9662-5.9662v-11.047z" fill="#ecbb59" filter="url(#filter81869-6)" stroke-width="2.2863"/>
  <g fill="#f9e8c8">
   <rect x="80.976" y="164.78" width="7.9273" height="7.9273" ry=".9493"/>
   <rect x="96.214" y="164.78" width="7.9273" height="7.9273" ry=".9493"/>
   <rect x="65.738" y="164.78" width="7.9273" height="7.9273" ry=".9493"/>
   <rect x="50.5" y="164.78" width="7.9273" height="7.9273" ry=".9493"/>
  </g>
  <path d="m50.5 160.08v-39.432c0-3.301 2.6575-5.9585 5.9585-5.9585h41.724c3.301 0 5.9585 2.6575 5.9585 5.9585v39.432z" fill="#f2d291" stroke-width="2.2834"/>
  <g transform="matrix(.99871 0 0 .99871 -293.54 -43.274)" fill="#f9e8c8">
   <rect x="347.39" y="190.96" width="11.906" height="11.906" ry="1.4258"/>
   <g transform="translate(0 -.39647)">
    <rect x="362.23" y="197.84" width="15.532" height="2.7417" ry="1.3709"/>
    <rect x="362.23" y="194.04" width="24.298" height="2.7417" ry="1.3709"/>
    <rect x="347.39" y="166.43" width="24.298" height="2.7417" ry="1.3709"/>
   </g>
  </g>
  <g transform="matrix(.99871 0 0 .99871 -293.54 -59.086)" fill="#f9e8c8">
   <rect x="347.39" y="190.96" width="11.906" height="11.906" ry="1.4258"/>
   <g transform="translate(0 -.39647)">
    <rect x="362.23" y="197.84" width="15.532" height="2.7417" ry="1.3709"/>
    <rect x="362.23" y="194.04" width="24.298" height="2.7417" ry="1.3709"/>
   </g>
  </g>
  <rect x="50.5" y="60.642" width="53.641" height="29.87" ry="3.577" fill="#f2d291"/>
  <g fill="#f9e8c8">
   <rect x="50.5" y="96.657" width="11.891" height="11.891" ry="1.424"/>
   <rect x="64.417" y="96.657" width="11.891" height="11.891" ry="1.424"/>
   <rect x="78.334" y="96.657" width="11.891" height="11.891" ry="1.424"/>
   <rect x="92.251" y="96.657" width="11.891" height="11.891" ry="1.424"/>
   <rect x="50.5" y="48.81" width="7.9273" height="7.9273" ry="1.6655"/>
  </g>
  <g transform="matrix(2.7287 0 0 2.7287 -256.61 -949.5)">
   <g transform="translate(-29.507 18.096)">
    <path d="m136.8 339.55c-0.22542 9e-4 -0.45323 0.0133-0.66803 0.0448v1.9e-4c-0.2864 0.0421-0.55271 0.11675-0.75976 0.25779-0.20705 0.14103-0.35054 0.36085-0.36145 0.64061-0.0213 0.5473 0.34928 1.1154 0.88289 1.6523 0.53363 0.53687 1.2425 1.0436 1.9492 1.4356 0.72031 0.39952 1.6252 0.62152 2.3964 0.69338 0.38557 0.0359 0.73643 0.0346 1.0196-6e-3 0.28323-0.0406 0.50627-0.10645 0.62681-0.27727 0.11338-0.16066 0.11582-0.37289 0.0842-0.61337-0.0317-0.24048-0.10793-0.51247-0.2071-0.787-0.19832-0.54906-0.48146-1.0981-0.73442-1.3809-0.77222-0.86328-2.0022-1.4904-3.1934-1.6035-0.29041-0.0276-0.65925-0.0581-1.035-0.0566zm9.8359 0.91372c-0.0703 1.5e-4 -0.12482 1e-3 -0.1619 5e-3v-1.9e-4c-0.17156 0.0143-1.046 0.12856-1.9354 0.25004-0.44473 0.0607-0.8885 0.12213-1.2383 0.17381-0.17488 0.0258-0.32664 0.0491-0.44334 0.0683-0.0998 0.0164-0.15758 0.0294-0.20711 0.041-8e-3 2e-3 -0.028 4e-3 -0.0352 6e-3 -0.0993 0.0272-0.18156 0.0816-0.23226 0.15623-0.0507 0.0747-0.0668 0.16143-0.0664 0.24209 9.7e-4 0.16133 0.0594 0.31725 0.11519 0.45128 0.0187 0.0448 0.0356 0.0562 0.0547 0.0762s0.0414 0.0407 0.0685 0.0645c0.0542 0.0476 0.12668 0.10592 0.21675 0.17571 0.18012 0.13958 0.42929 0.32275 0.72648 0.53526 0.59438 0.42501 1.3807 0.96546 2.1758 1.4999 0.79513 0.53439 1.599 1.0615 2.2324 1.4571 0.31669 0.19781 0.59089 0.363 0.80081 0.48041 0.10496 0.0587 0.19313 0.1069 0.26555 0.14072 0.0724 0.0338 0.11513 0.0584 0.19141 0.0624 0.0909 5e-3 0.18536-0.0198 0.32229-0.0547s0.30544-0.085 0.4961-0.14659c0.38135-0.12313 0.85006-0.29096 1.3105-0.46679 0.46048-0.17582 0.9122-0.35834 1.2617-0.51369 0.17475-0.0777 0.32412-0.14869 0.43746-0.20881 0.0567-0.0301 0.10321-0.0582 0.14262-0.0842 0.0394-0.026 0.0707-0.0424 0.10345-0.0897 0.0608-0.0878 0.0919-0.19736 0.12124-0.33023 0.0293-0.13287 0.0501-0.28602 0.0624-0.44126s0.0161-0.31171 8e-3 -0.45128c-8e-3 -0.13956-0.0244-0.25924-0.0702-0.35936-0.0454-0.0992-0.1433-0.23764-0.27935-0.42575-0.13605-0.18812-0.30778-0.41378-0.48249-0.63475-0.17473-0.22097-0.35242-0.43837-0.50387-0.61129-0.15143-0.17291-0.25657-0.29215-0.36125-0.35747-0.15408-0.0962-0.47466-0.22235-0.82425-0.34366-0.34962-0.12131-0.70327-0.22911-0.916-0.25212-0.0937-0.0101-0.32656-0.0213-0.64647-0.0352-0.31994-0.0138-0.71847-0.0278-1.1172-0.0409s-0.79778-0.0248-1.1152-0.0312c-0.19835-4e-3 -0.35961-7e-3 -0.47681-7e-3zm-4.1862 1.3321c-0.011 1.1e-4 -0.0225 9.1e-4 -0.0346 2e-3 -0.19774 0.0223-0.32492 0.14354-0.38282 0.25193-0.0569 0.10656-0.0624 0.20556-0.0626 0.20899-6e-3 0.0709 3e-3 0.14436 0.0197 0.2578 0.0163 0.11344 0.0427 0.25698 0.0741 0.41988 0.0627 0.32581 0.15158 0.73164 0.25193 1.1348s0.2104 0.80219 0.31832 1.1172c0.054 0.15753 0.1077 0.29446 0.1602 0.4023 0.0525 0.10783 0.0887 0.18916 0.18554 0.24607 0.0687 0.0404 0.15738 0.0679 0.29109 0.10951 0.13369 0.0415 0.3042 0.0894 0.49988 0.14053 0.39134 0.10225 0.88224 0.21854 1.3673 0.32039 0.48505 0.10186 0.96269 0.1887 1.3319 0.23624 0.1846 0.0238 0.3426 0.0377 0.4649 0.0371 0.0611-2.9e-4 0.11271-2e-3 0.16209-0.0136 0.0494-0.0112 0.11452-0.0252 0.15245-0.10743 0.0305-0.066 0.0181-0.11858 6e-3 -0.16606-0.0124-0.0475-0.0326-0.0943-0.0584-0.14639-0.0517-0.10421-0.12748-0.22773-0.22281-0.36731-0.19065-0.27915-0.45627-0.62281-0.73423-0.96479-0.27796-0.34199-0.56812-0.68188-0.80667-0.95306-0.23856-0.27118-0.4172-0.46501-0.50405-0.54302-0.15793-0.14184-0.68166-0.5379-1.2186-0.91013-0.26847-0.18612-0.53757-0.36322-0.75976-0.49421-0.11108-0.0655-0.20999-0.11976-0.29505-0.15812-0.0745-0.0335-0.12851-0.0617-0.2056-0.0609zm-8.9786-11.703c-0.0259-1.3e-4 -0.0515 2e-3 -0.0776 6e-3 -0.15695 0.027-0.27811 0.13654-0.39851 0.27539s-0.23581 0.31407-0.33988 0.50197c-0.20812 0.37581-0.37019 0.78707-0.39643 1.0645-0.0261 0.27569 0.0437 0.76703 0.14451 1.2404 0.0504 0.23668 0.11049 0.46391 0.17192 0.64836 0.0307 0.0922 0.0606 0.17396 0.0936 0.24228 0.0331 0.0683 0.0646 0.12452 0.12123 0.17174 0.18034 0.15055 0.42721 0.21577 0.77736 0.3692 0.35016 0.15344 0.80467 0.38518 1.3828 0.82804 0.56245 0.43084 1.4944 1.4699 2.3203 2.4102 0.41298 0.47015 0.80158 0.91625 1.1133 1.2559 0.15584 0.16982 0.2918 0.3127 0.40419 0.41989 0.11239 0.10718 0.18207 0.1782 0.2871 0.21486 0.25422 0.0887 0.54456 7e-3 0.7872-0.12105 0.12132-0.0639 0.22948-0.14208 0.31642-0.22848 0.0869-0.0864 0.15569-0.18018 0.17383-0.29695 0.0108-0.0695 0-0.0984-0.0117-0.16398-0.0115-0.0656-0.0297-0.14877-0.0528-0.25004-0.0462-0.20254-0.1145-0.47395-0.19916-0.79305-0.16932-0.63818-0.40371-1.4671-0.65423-2.3007-0.25052-0.83358-0.51607-1.6717-0.75012-2.334-0.11702-0.33112-0.22665-0.61846-0.32228-0.83996-0.0956-0.22149-0.16323-0.36896-0.25969-0.46471-0.1555-0.15435-0.47084-0.31678-0.89651-0.51578-0.42566-0.19901-0.95026-0.41816-1.4726-0.62094-0.52237-0.20278-1.0424-0.38775-1.459-0.51956-0.20828-0.0659-0.389-0.11994-0.53507-0.15434-0.10955-0.0258-0.19052-0.045-0.26819-0.0454zm1.5203 5.0373c-0.0545 7.5e-4 -0.11059 0.0109-0.174 0.0238-0.10146 0.0209-0.21836 0.0559-0.34575 0.0995-0.25478 0.0872-0.55347 0.21236-0.84185 0.34971-0.28837 0.13735-0.56628 0.2853-0.77925 0.41989-0.10648 0.0673-0.19552 0.13104-0.26555 0.1914-0.07 0.0603-0.13136 0.10451-0.15036 0.21089-0.0254 0.14209 0.0133 0.30269 0.0683 0.52353 0.0549 0.22084 0.1352 0.48205 0.2247 0.73821s0.18865 0.50771 0.28124 0.70888c0.0463 0.10058 0.0899 0.188 0.13278 0.25988 0.0429 0.0719 0.0769 0.12653 0.13863 0.17192 0.0444 0.0326 0.0835 0.0445 0.13675 0.0624 0.0532 0.0179 0.11881 0.0372 0.19538 0.0566 0.15316 0.0387 0.35174 0.0814 0.58387 0.1271 0.46426 0.0912 1.0589 0.19312 1.6544 0.289 0.59547 0.0959 1.1921 0.18507 1.6621 0.25194 0.47007 0.0669 0.79285 0.11019 0.90805 0.11518 0.16504 7e-3 0.3549 0.0343 0.52543-0.01 0.0853-0.0221 0.17578-0.0721 0.22469-0.16399 0.0489-0.0918 0.0465-0.20217 0.0136-0.32229-0.039-0.14249-0.14696-0.28621-0.29676-0.47851-0.14978-0.1923-0.34154-0.41582-0.5449-0.63872-0.40671-0.44581-0.85206-0.88781-1.0919-1.0858-0.21105-0.17425-0.64718-0.6215-1.0722-1.0314-0.21251-0.20493-0.42437-0.40102-0.60939-0.55455-0.18502-0.15352-0.32603-0.26883-0.48042-0.3047v2e-4c-0.0326-8e-3 -0.0647-0.0105-0.0974-0.01zm7.4272 2.515c-0.21798 2e-3 -0.43999 0.0185-0.66425 0.0514-1.0252 0.15052-1.9073 0.60977-2.5085 1.2409-0.6012 0.63117-0.92169 1.4394-0.80043 2.2653s0.66053 1.5079 1.4178 1.9396c0.75726 0.43172 1.7343 0.61977 2.7595 0.46925 1.0252-0.15052 1.909-0.61184 2.5102-1.243 0.6012-0.63116 0.9198-1.4392 0.79854-2.2651-0.12126-0.8259-0.65863-1.5081-1.4159-1.9398-0.5916-0.33727-1.3184-0.5246-2.097-0.51862zm5.0137-2.6881c-0.0785 0.0209-0.16167 0.0642-0.27539 0.12696-0.11371 0.0627-0.24834 0.14311-0.38867 0.23437-0.28065 0.18253-0.58316 0.40466-0.7871 0.60156-0.21377 0.20637-0.45572 0.57048-0.65431 0.89063-0.19858 0.32014-0.34765 0.59375-0.34765 0.59375a0.13229 0.13229 0 0 0 0.0508 0.17969 0.13229 0.13229 0 0 0 0.17969-0.0527s0.14729-0.26846 0.34179-0.58203c0.19451-0.31357 0.443-0.67544 0.61328-0.83984 0.1801-0.17387 0.47665-0.39185 0.74805-0.56836 0.1357-0.0883 0.26483-0.166 0.3711-0.22461 0.10626-0.0586 0.1967-0.0982 0.21679-0.10352 0.01-3e-3 0.0746-5e-3 0.14844 6e-3 0.0738 0.011 0.16018 0.031 0.24219 0.0527 0.16401 0.0435 0.30664 0.0937 0.30664 0.0937a0.13229 0.13229 0 0 0 0.16798-0.082 0.13229 0.13229 0 0 0-0.0801-0.16796s-0.15031-0.053-0.32617-0.0996c-0.0879-0.0233-0.18218-0.0453-0.27149-0.0586-0.0893-0.0133-0.1705-0.0228-0.25586 0zm2.1582 2.5996c-0.11574-3e-3 -0.25306 3e-3 -0.40039 0.0137-0.29467 0.0218-0.62858 0.0682-0.90235 0.13672-0.28571 0.0715-0.6813 0.24697-1.0156 0.40625-0.33434 0.15929-0.60353 0.30274-0.60353 0.30274a0.13229 0.13229 0 0 0-0.0547 0.17968 0.13229 0.13229 0 0 0 0.17968 0.0527s0.26329-0.13841 0.5918-0.29492c0.3285-0.15651 0.72702-0.33062 0.96679-0.39063 0.25171-0.063 0.57617-0.10807 0.85743-0.1289 0.14063-0.0104 0.27149-0.0142 0.37501-0.0117 0.1035 2e-3 0.18548 0.0158 0.20116 0.0215 0.0532 0.0192 0.20689 0.14675 0.32031 0.26758s0.20117 0.23242 0.20117 0.23242a0.13229 0.13229 0 0 0 0.18555 0.0215 0.13229 0.13229 0 0 0 0.0234-0.18555s-0.0942-0.11938-0.2168-0.25c-0.12261-0.13063-0.25894-0.27629-0.42382-0.33594-0.0806-0.0292-0.16943-0.0343-0.28515-0.0371zm-4.8102-0.22411c-0.45231 5e-3 -0.81631 0.15627-1.002 0.37223a0.1323 0.1323 0 0 0 0.0507 0.20691c0.77369 0.31712 1.8871 1.1345 2.0548 2.709a0.1323 0.1323 0 0 0 0.12105 0.11915c0.17218 0.0136 0.3226-0.0872 0.48041-0.23245 0.15782-0.14521 0.31191-0.35079 0.4161-0.59956 0.20836-0.49752 0.19858-1.1807-0.40438-1.8125a0.1323 0.1323 0 0 0-2e-3 -2e-3c-0.54175-0.53827-1.1284-0.74342-1.623-0.75957v0c-0.0309-1e-3 -0.0615-1e-3 -0.0915-1e-3zm-2.8526 8.8539c-5e-3 4e-5 -0.01 2.5e-4 -0.0148 7.6e-4 -0.14665 0.0155-0.31335 0.067-0.47454 0.11708-0.1612 0.0501-0.3175 0.0997-0.40835 0.11726-0.0761 0.0147-0.11842 0.0577-0.16001 0.10157-0.0416 0.0439-0.0803 0.0964-0.11916 0.15623-0.0777 0.1198-0.15638 0.26881-0.23245 0.42177-0.0761 0.15297-0.14949 0.30826-0.21088 0.43558-0.0614 0.12734-0.11881 0.2351-0.13297 0.25402 9.7e-4 -2e-3 -0.0297 0.0297-0.076 0.0664-0.0462 0.0367-0.10943 0.0839-0.18176 0.13675-0.14467 0.10559-0.3291 0.23861-0.51748 0.3866-0.37676 0.29598-0.7756 0.63813-0.89273 1.0196-0.0552 0.17972-0.0479 0.33696 0.0157 0.45903s0.17613 0.1948 0.289 0.23226c0.11287 0.0375 0.23092 0.0453 0.3359 0.0373 0.105-8e-3 0.19274-0.0275 0.26952-0.0724 0.0591-0.0346 0.18566-0.12118 0.36334-0.24417 0.17769-0.12298 0.39863-0.27749 0.61715-0.4354 0.21854-0.1579 0.43437-0.3189 0.60355-0.45128 0.0846-0.0662 0.15812-0.12394 0.21485-0.17381 0.0567-0.0499 0.0934-0.0768 0.129-0.13864 0.0492-0.0855 0.18588-0.30233 0.31434-0.52145 0.0642-0.10956 0.12769-0.22088 0.17779-0.3204 0.0501-0.0995 0.0877-0.18195 0.10346-0.26555 0.0166-0.0887 0.0967-0.3939 0.14658-0.66804 0.0249-0.13706 0.0445-0.26744 0.0429-0.37695-9.7e-4 -0.0548-4e-3 -0.10478-0.0293-0.1602-0.0124-0.0277-0.0318-0.0581-0.0664-0.0819-0.0303-0.0208-0.0709-0.0322-0.1063-0.032zm-6.8415-5.4328a0.1323 0.1323 0 0 0-0.0776 0.0291c-0.43855 0.34416-0.75122 0.6424-0.96101 0.9629-0.20979 0.32049-0.30943 0.66294-0.31831 1.0645a0.1323 0.1323 0 0 0 0 0.0176c0.15033 1.3782 1.3877 2.455 2.8242 3.0585s3.0895 0.75068 4.164 0.18366c0.2408-0.12705 0.45721-0.44262 0.59579-0.81632 0.13856-0.3737 0.18511-0.81945-0.0566-1.1602a0.1323 0.1323 0 0 0-0.10744-0.0567c-3.1737 0.0253-4.9894-1.671-5.9453-3.2206a0.1323 0.1323 0 0 0-0.0898-0.0605v0a0.1323 0.1323 0 0 0-0.0278-2e-3zm-0.90578 2.9413a0.1323 0.1323 0 0 0-0.11916 0.0722c-0.36819 0.75143-0.37006 1.305-0.0976 1.8535 0.37934 0.76349 1.1838 1.3325 2.1426 1.6563 0.95878 0.32377 2.0777 0.40415 3.1054 0.16398 0.51784-0.12102 0.96519-0.618 0.95513-1.2421a0.1323 0.1323 0 0 0-0.1583-0.12899c-1.2004 0.24045-2.429 0.0131-3.459-0.45299-1.03-0.46615-1.8573-1.1739-2.254-1.8575a0.1323 0.1323 0 0 0-0.11518-0.0645zm0.36787 2.3771a0.1323 0.1323 0 0 0-0.0397 6e-3v-1.9e-4a0.1323 0.1323 0 0 0-0.0898 0.0997c-0.17004 0.82415 0.0407 1.531 0.46869 2.0196 0.42796 0.48861 1.0678 0.76091 1.7402 0.74407 1.3246-0.0332 2.0576-0.87253 2.0468-1.5371a0.1323 0.1323 0 0 0-0.14053-0.13088c-1.3406 0.0849-2.7573-0.0673-3.8945-1.164a0.1323 0.1323 0 0 0-0.0912-0.0371zm6.7231-0.99203c-0.0725 4.1e-4 -0.14678 0.0199-0.21203 0.0641-0.15125 0.10262-0.26048 0.29789-0.35935 0.49819-0.0494 0.10015-0.0919 0.1996-0.11916 0.289-0.0272 0.0894-0.0589 0.15588-0.0155 0.26366 0.0346 0.0861 0.0969 0.19172 0.17571 0.289 0.0394 0.0486 0.0817 0.0935 0.13088 0.13088 0.0491 0.0374 0.10852 0.0732 0.19141 0.0685 0.0603-3e-3 0.11776-0.0188 0.19916-0.041s0.17776-0.0514 0.27538-0.084c0.19528-0.0651 0.38519-0.13317 0.49819-0.20314 0.0516-0.0319 0.0844-0.0867 0.0976-0.13674 0.0132-0.05 0.0125-0.0966 6e-3 -0.14261-0.0131-0.0919-0.0493-0.18584-0.0936-0.27917-0.0887-0.18666-0.20898-0.36775-0.31643-0.47265-0.0905-0.0883-0.1842-0.16716-0.29695-0.21297v0c-0.0493-0.02-0.10476-0.0313-0.16114-0.031zm2.7181 0.8131c-0.0203 3e-5 -0.0406 4.9e-4 -0.0609 1e-3 -0.16277 5e-3 -0.31904 0.0236-0.44334 0.0995-0.1415 0.0865-0.19227 0.23728-0.23245 0.38093-0.0402 0.14366-0.0617 0.29186-0.0802 0.38281-0.0214 0.10504-0.085 0.36804-0.12105 0.61716-0.018 0.12456-0.0282 0.24583-0.0233 0.35349 2e-3 0.0538 7e-3 0.10465 0.0233 0.15434 0.0164 0.0497 0.0463 0.10343 0.10553 0.13864 0.0993 0.0589 0.20115 0.0458 0.30074 0.0234 0.0996-0.0224 0.20387-0.0618 0.3047-0.10932 0.20167-0.095 0.38451-0.21167 0.4804-0.29695 0.0572-0.0508 0.11021-0.11991 0.17383-0.2071 0.0636-0.0872 0.13155-0.18832 0.19537-0.28503 0.12765-0.19343 0.23642-0.3692 0.23642-0.3692a0.1323 0.1323 0 0 0 0.0195-0.0819c-0.0116-0.11662-0.0505-0.26975-0.12313-0.41422-0.0726-0.14447-0.1824-0.28875-0.35935-0.33969-0.1138-0.0328-0.25381-0.0482-0.39606-0.048z" color="#000000" fill="#202731" stroke-linecap="round" stroke-linejoin="round" stroke-width=".26458px" style="-inkscape-stroke:none"/>
   </g>
  </g>
  <g transform="matrix(2.7287 0 0 2.7287 -241.11 -953.98)">
   <g stroke-linecap="round" stroke-linejoin="round">
    <path d="m107.99 365.62c-0.16802 0.10264-0.21192 0.48197-0.25182 0.67799-0.0456 0.22384-0.24569 1.0237-0.0775 1.1235 0.18919 0.11231 0.78256-0.23712 0.9298-0.36806 0.15215-0.1353 0.58112-0.83294 0.58112-0.83294-0.0195-0.1961-0.14034-0.5681-0.38741-0.63923-0.21733-0.0626-0.62874-0.0623-0.79419 0.0387z" fill="#906715" stroke="#906715" stroke-width=".26458px"/>
    <path d="m105.12 365.66c0.0526 0.13082 0.24323 0.41393 0.36805 0.40677 0.12482-7e-3 0.7443-0.20706 0.91042-0.30992 0.16612-0.10287-0.15942-0.6574-0.3293-0.82325-0.17005-0.16602-0.34059-0.27529-0.50364-0.16467-0.19337 0.13119-0.49818 0.76025-0.44553 0.89107z" fill="#906715" stroke="#906715" stroke-width=".26458px"/>
    <g stroke-width=".26458">
     <path d="m98.983 365.72c1.1724 1.1306 2.638 1.2878 3.9948 1.2018 9e-3 0.5586-0.64951 1.3704-1.9189 1.4022-1.2694 0.0318-2.4013-1.0267-2.0759-2.6041z" fill="#392909" stroke="#392909"/>
     <path d="m98.615 363.34c0.83302 1.4357 3.388 2.8678 5.8544 2.3738 9e-3 0.5586-0.39857 1.0054-0.85349 1.1117-2.0012 0.46765-4.3844-0.31004-5.0994-1.7491-0.25794-0.51916-0.25941-1.0059 0.0985-1.7363z" fill="#e6a522" stroke="#e6a522"/>
     <path d="m99.526 360.4c0.97285 1.5771 2.8368 3.3096 6.0584 3.284 0.40873 0.57615-0.13659 1.5944-0.49318 1.7826-2.0301 1.0712-6.5103-0.52625-6.7954-3.14 0.0169-0.76431 0.36344-1.2465 1.2301-1.9266z" fill="#392909" stroke="#392909"/>
    </g>
    <path d="m105.49 366.07c-0.21596 0.0417-0.64247 1.1403-0.77483 1.3172s-1.4531 0.93888-1.6465 1.569 0.53913 0.60746 0.71672 0.50364 1.7819-1.226 1.879-1.3947c0.10736-0.18665 0.54121-0.85256 0.58112-1.0654 0.0399-0.21282 0.31167-1.1829 0.11623-1.1622-0.25131 0.0265-0.65654 0.19091-0.87168 0.23244z" fill="#906715" stroke="#906715" stroke-width=".26458px"/>
   </g>
   <g fill="#e6a522">
    <path d="m108.31 357.31c0.80672 0.33066 1.9624 1.1858 2.1362 2.8169 0.37886 0.03 1.5303-1.2225 0.38686-2.4207-1.04-1.0334-2.2123-0.75744-2.523-0.39622z" stroke="#e6a522" stroke-linecap="round" stroke-linejoin="round" stroke-width=".26458px"/>
    <path d="m114.03 357.07c-0.11574-3e-3 -0.25306 3e-3 -0.40039 0.0137-0.29467 0.0218-0.62858 0.0682-0.90235 0.13672-0.28571 0.0715-0.6813 0.24697-1.0156 0.40625-0.33433 0.15929-0.60352 0.30274-0.60352 0.30274a0.13229 0.13229 0 0 0-0.0547 0.17968 0.13229 0.13229 0 0 0 0.17969 0.0527s0.26329-0.13841 0.5918-0.29492c0.3285-0.15651 0.72702-0.33062 0.96679-0.39063 0.25171-0.063 0.57617-0.10807 0.85743-0.1289 0.14063-0.0104 0.27148-0.0142 0.375-0.0117 0.10351 2e-3 0.18549 0.0158 0.20117 0.0215 0.0532 0.0192 0.20689 0.14675 0.32031 0.26758s0.20117 0.23242 0.20117 0.23242a0.13229 0.13229 0 0 0 0.18555 0.0215 0.13229 0.13229 0 0 0 0.0234-0.18555s-0.0942-0.11938-0.2168-0.25c-0.12261-0.13063-0.25894-0.27629-0.42383-0.33594-0.0806-0.0292-0.16942-0.0343-0.28515-0.0371z" color="#000000" style="-inkscape-stroke:none"/>
    <path d="m111.87 354.47c-0.0785 0.0209-0.16167 0.0642-0.27539 0.12696-0.11371 0.0627-0.24834 0.14311-0.38867 0.23437-0.28065 0.18253-0.58316 0.40466-0.78711 0.60156-0.21376 0.20637-0.45571 0.57048-0.6543 0.89063-0.19858 0.32014-0.34765 0.59375-0.34765 0.59375a0.13229 0.13229 0 0 0 0.0508 0.17969 0.13229 0.13229 0 0 0 0.17969-0.0527s0.14729-0.26846 0.34179-0.58203c0.19451-0.31357 0.443-0.67544 0.61328-0.83984 0.1801-0.17387 0.47665-0.39185 0.74805-0.56836 0.1357-0.0883 0.26483-0.166 0.3711-0.22461 0.10626-0.0586 0.1967-0.0982 0.21679-0.10352 0.01-3e-3 0.0746-5e-3 0.14844 6e-3 0.0738 0.011 0.16018 0.031 0.24219 0.0527 0.16401 0.0435 0.30664 0.0937 0.30664 0.0937a0.13229 0.13229 0 0 0 0.16797-0.082 0.13229 0.13229 0 0 0-0.0801-0.16796s-0.15031-0.053-0.32617-0.0996c-0.0879-0.0233-0.18218-0.0453-0.27149-0.0586-0.0893-0.0133-0.1705-0.0228-0.25586 0z" color="#000000" style="-inkscape-stroke:none"/>
   </g>
   <g transform="rotate(-8.3526 66.27 495.18)" fill="#392909" stroke-linecap="round" stroke-linejoin="round">
    <path d="m129.46 367.47a3.6501 2.8559 0 0 1-3.6501 2.8559 3.6501 2.8559 0 0 1-3.6501-2.8559 3.6501 2.8559 0 0 1 3.6501-2.8559 3.6501 2.8559 0 0 1 3.6501 2.8559z" color="#000000" stroke-width=".26712" style="-inkscape-stroke:none"/>
    <path d="m125.81 364.48c-1.0362 0-1.9756 0.32615-2.6621 0.86328-0.6865 0.53714-1.1211 1.2902-1.1211 2.125 0 0.83477 0.43459 1.5879 1.1211 2.125 0.68651 0.53714 1.6259 0.86524 2.6621 0.86524s1.9776-0.3281 2.6641-0.86524c0.68651-0.53713 1.1191-1.2902 1.1191-2.125 0-0.83476-0.43263-1.5879-1.1191-2.125-0.6865-0.53713-1.6279-0.86328-2.6641-0.86328zm0 0.26563c0.97971 0 1.8635 0.31209 2.498 0.80859s1.0195 1.1716 1.0195 1.9141c0 0.74251-0.38496 1.4176-1.0195 1.9141s-1.5183 0.80859-2.498 0.80859-1.8635-0.31209-2.498-0.80859-1.0176-1.1716-1.0176-1.9141c0-0.7425 0.383-1.4176 1.0176-1.9141s1.5183-0.80859 2.498-0.80859z" color="#000000" style="-inkscape-stroke:none"/>
   </g>
   <g fill="#f9e8c8" stroke="#f9e8c8" stroke-width=".26458px">
    <path d="m102.86 359.12c-0.34168-0.0148-4.7868-0.67007-5.068-0.8766-0.23326-0.17135-0.85307-1.9453-0.79443-2.2737 0.0492-0.27548 2.1108-1.2667 2.4929-1.178 0.38213 0.0888 1.6562 1.4887 2.1094 1.8628s1.7915 1.7764 1.8902 2.1368c0.11117 0.40595-0.28839 0.34356-0.63007 0.32872z"/>
    <path d="m104.66 358.59c0.0441-0.28437-1.7449-6.5679-2.213-7.0325s-4.1979-1.8819-4.5934-1.8138-0.98255 1.2578-1.0266 1.724 0.26645 2.007 0.48427 2.1889c0.28785 0.24031 0.98318 0.29545 2.1574 1.1949s3.6988 4.1454 4.0872 4.2809 1.06-0.25802 1.1041-0.54239z" stroke-linecap="round" stroke-linejoin="round"/>
    <path d="m106.54 361.79c-0.0274 0.30136 0.62369 3.2629 0.9451 3.4517 0.32142 0.18878 3.9665 1.0306 4.0818 0.78075 0.12808-0.27767-2.0108-2.7375-2.2874-2.986s-2.1361-1.6198-2.4107-1.5889c-0.31029 0.035-0.32873 0.34245-0.32873 0.34245z"/>
    <path d="m107.08 360.65c0.26513-0.0726 3.5406-0.50959 3.8352-0.53417 0.29462-0.0246 3.1758 0.0753 3.4928 0.10957 0.36145 0.0391 1.4404 0.4228 1.6848 0.57528s1.4481 1.6946 1.5752 1.9724 0.0469 1.2259-0.10957 1.4519c-0.16107 0.23258-3.5427 1.5286-3.9585 1.5067-0.41578-0.0219-6.5081-4.1522-6.6157-4.4105s-0.20846-0.58787 0.0959-0.67117z"/>
   </g>
   <path d="m99.577 360.02c0.0375-0.96136 1.7561-0.84785 2.6807-0.76005 1.1534 0.10951 2.359 0.72583 3.1056 1.5605 0.45468 0.5083 1.1556 2.1832 0.84942 2.6172-0.30621 0.43392-2.4767 0.32216-3.8711-0.45125-1.3944-0.77341-2.8022-2.005-2.7647-2.9663z" fill="#e6a522" stroke="#e6a522" stroke-linecap="round" stroke-linejoin="round" stroke-width=".26458px"/>
  </g>
 </g>
</svg>
