<svg width="714" height="934" viewBox="0 0 714 934" fill="none" xmlns="http://www.w3.org/2000/svg">
<path d="M472.532 801.4L547.519 758.161L622.506 801.401L622.506 887.875L547.519 931.114L472.532 887.875L472.532 801.4Z" stroke="#E6A522" stroke-width="5"/>
<path d="M294.481 801.4L369.468 758.161L444.456 801.401L444.456 887.875L369.468 931.114L294.481 887.875L294.481 801.4Z" stroke="#E6A522" stroke-width="5"/>
<path d="M561.487 652.4L636.475 609.161L711.462 652.401L711.462 738.875L636.475 782.114L561.487 738.875L561.487 652.4Z" stroke="#E6A522" stroke-width="5"/>
<path d="M383.849 648.126L458.836 604.886L533.824 648.126L533.824 734.6L458.836 777.839L383.849 734.6L383.849 648.126Z" stroke="#E6A522" stroke-width="5"/>
<path d="M472.532 505.4L547.519 462.161L622.506 505.401L622.506 591.875L547.519 635.114L472.532 591.875L472.532 505.4Z" stroke="#E6A522" stroke-width="5"/>
<path d="M294.481 505.4L369.468 462.161L444.456 505.401L444.456 591.875L369.468 635.114L294.481 591.875L294.481 505.4Z" stroke="#E6A522" stroke-width="5"/>
<path d="M559.481 359.4L634.468 316.161L709.456 359.401L709.456 445.875L634.468 489.114L559.481 445.875L559.481 359.4Z" stroke="#E6A522" stroke-width="5"/>
<path d="M383.849 352.126L458.836 308.886L533.824 352.126L533.824 438.6L458.836 481.839L383.849 438.6L383.849 352.126Z" stroke="#E6A522" stroke-width="5"/>
<path d="M203.532 352.4L278.519 309.161L353.506 352.401L353.506 438.875L278.519 482.114L203.532 438.875L203.532 352.4Z" stroke="#E6A522" stroke-width="5"/>
<path d="M25.481 352.4L100.468 309.161L175.456 352.401L175.456 438.875L100.468 482.114L25.481 438.875L25.481 352.4Z" stroke="#E6A522" stroke-width="5"/>
<path d="M471.532 199.4L546.519 156.161L621.506 199.401L621.506 285.875L546.519 329.114L471.532 285.875L471.532 199.4Z" stroke="#E6A522" stroke-width="5"/>
<path d="M293.481 199.4L368.468 156.161L443.456 199.401L443.456 285.875L368.468 329.114L293.481 285.875L293.481 199.4Z" stroke="#E6A522" stroke-width="5"/>
<path d="M114.849 199.126L189.836 155.886L264.824 199.126L264.824 285.6L189.836 328.839L114.849 285.6L114.849 199.126Z" stroke="#E6A522" stroke-width="5"/>
<path d="M382.849 46.1256L457.836 2.88586L532.824 46.1256L532.824 132.6L457.836 175.839L382.849 132.6L382.849 46.1256Z" stroke="#E6A522" stroke-width="5"/>
<path d="M376.583 602.867C375.003 602.874 373.407 602.96 371.902 603.181V603.183C369.896 603.478 368.03 604.001 366.58 604.989C365.129 605.977 364.124 607.517 364.047 609.477C363.898 613.311 366.494 617.291 370.233 621.053C373.971 624.814 378.938 628.364 383.889 631.11C388.935 633.909 395.275 635.464 400.678 635.968C403.379 636.219 405.837 636.21 407.821 635.926C409.805 635.642 411.368 635.18 412.212 633.983C413.007 632.858 413.024 631.371 412.802 629.686C412.58 628.001 412.046 626.096 411.351 624.173C409.962 620.326 407.978 616.479 406.206 614.498C400.796 608.45 392.179 604.056 383.833 603.264C381.799 603.071 379.215 602.857 376.582 602.867L376.583 602.867ZM445.492 609.269C444.999 609.27 444.618 609.276 444.358 609.304V609.303C443.156 609.403 437.03 610.203 430.799 611.054C427.683 611.479 424.574 611.91 422.123 612.272C420.898 612.453 419.835 612.616 419.017 612.751C418.318 612.865 417.913 612.956 417.566 613.038C417.51 613.052 417.37 613.066 417.32 613.08C416.624 613.27 416.047 613.651 415.692 614.174C415.337 614.698 415.224 615.305 415.227 615.87C415.234 617.001 415.643 618.093 416.034 619.032C416.165 619.346 416.284 619.426 416.417 619.566C416.551 619.706 416.707 619.851 416.897 620.018C417.277 620.351 417.785 620.76 418.416 621.249C419.678 622.226 421.423 623.51 423.505 624.999C427.67 627.976 433.179 631.763 438.749 635.507C444.32 639.251 449.951 642.944 454.389 645.715C456.608 647.101 458.529 648.258 459.999 649.081C460.735 649.492 461.352 649.83 461.86 650.067C462.367 650.303 462.666 650.476 463.201 650.504C463.837 650.539 464.499 650.365 465.459 650.121C466.418 649.876 467.598 649.525 468.934 649.094C471.606 648.231 474.89 647.055 478.115 645.823C481.342 644.592 484.506 643.313 486.955 642.225C488.179 641.68 489.226 641.183 490.02 640.762C490.417 640.551 490.743 640.354 491.019 640.172C491.295 639.989 491.514 639.875 491.744 639.543C492.17 638.928 492.387 638.161 492.593 637.23C492.798 636.299 492.944 635.226 493.03 634.138C493.116 633.051 493.143 631.954 493.086 630.977C493.03 629.999 492.915 629.161 492.594 628.459C492.276 627.764 491.59 626.794 490.637 625.476C489.684 624.158 488.481 622.577 487.257 621.029C486.033 619.481 484.788 617.958 483.727 616.747C482.666 615.535 481.929 614.7 481.196 614.242C480.117 613.568 477.871 612.684 475.421 611.835C472.972 610.985 470.494 610.229 469.004 610.068C468.348 609.997 466.716 609.919 464.475 609.822C462.233 609.725 459.441 609.627 456.648 609.535C453.854 609.443 451.059 609.361 448.835 609.316C447.445 609.288 446.315 609.267 445.494 609.267L445.492 609.269ZM416.164 618.601C416.087 618.602 416.006 618.608 415.921 618.615C414.536 618.772 413.645 619.621 413.24 620.38C412.841 621.127 412.802 621.82 412.801 621.844C412.759 622.341 412.822 622.856 412.939 623.651C413.053 624.445 413.238 625.451 413.458 626.592C413.897 628.875 414.52 631.718 415.223 634.543C415.926 637.367 416.697 640.163 417.453 642.37C417.831 643.473 418.208 644.433 418.576 645.188C418.943 645.944 419.197 646.513 419.875 646.912C420.357 647.195 420.978 647.388 421.915 647.679C422.851 647.97 424.046 648.305 425.417 648.664C428.159 649.38 431.598 650.195 434.996 650.908C438.394 651.622 441.74 652.23 444.327 652.563C445.62 652.73 446.727 652.828 447.584 652.823C448.012 652.821 448.374 652.809 448.72 652.728C449.066 652.65 449.522 652.552 449.788 651.976C450.002 651.513 449.915 651.145 449.83 650.812C449.743 650.479 449.602 650.151 449.421 649.786C449.059 649.056 448.528 648.191 447.86 647.213C446.524 645.257 444.663 642.85 442.716 640.454C440.768 638.058 438.736 635.677 437.064 633.777C435.393 631.877 434.142 630.519 433.533 629.973C432.427 628.979 428.757 626.204 424.996 623.596C423.115 622.292 421.229 621.052 419.673 620.134C418.895 619.675 418.202 619.295 417.606 619.026C417.084 618.791 416.705 618.594 416.165 618.599L416.164 618.601ZM353.261 536.611C353.079 536.61 352.9 536.625 352.717 536.653C351.617 536.842 350.769 537.61 349.925 538.583C349.082 539.555 348.273 540.783 347.544 542.099C346.086 544.732 344.95 547.613 344.767 549.557C344.584 551.489 345.073 554.931 345.779 558.247C346.132 559.906 346.553 561.497 346.983 562.79C347.198 563.436 347.408 564.008 347.639 564.487C347.871 564.966 348.092 565.359 348.489 565.69C349.752 566.745 351.482 567.202 353.935 568.277C356.388 569.352 359.572 570.975 363.622 574.078C367.563 577.096 374.092 584.376 379.878 590.964C382.772 594.257 385.494 597.383 387.678 599.762C388.77 600.952 389.722 601.953 390.51 602.704C391.297 603.455 391.785 603.952 392.521 604.209C394.302 604.831 396.336 604.258 398.036 603.361C398.886 602.914 399.644 602.366 400.253 601.761C400.862 601.155 401.344 600.498 401.471 599.68C401.546 599.193 401.471 598.991 401.389 598.531C401.308 598.072 401.181 597.489 401.019 596.78C400.695 595.361 400.217 593.459 399.623 591.224C398.437 586.753 396.795 580.945 395.04 575.105C393.285 569.265 391.425 563.393 389.785 558.753C388.965 556.433 388.197 554.42 387.527 552.869C386.857 551.317 386.383 550.284 385.708 549.613C384.618 548.532 382.409 547.394 379.427 545.999C376.445 544.605 372.769 543.07 369.11 541.649C365.45 540.229 361.807 538.933 358.888 538.009C357.429 537.548 356.163 537.169 355.139 536.928C354.372 536.747 353.805 536.613 353.261 536.61L353.261 536.611ZM363.912 571.902C363.53 571.907 363.137 571.979 362.693 572.069C361.982 572.215 361.163 572.46 360.27 572.766C358.485 573.377 356.393 574.254 354.373 575.216C352.352 576.178 350.405 577.215 348.913 578.158C348.167 578.629 347.543 579.076 347.053 579.499C346.562 579.921 346.132 580.231 345.999 580.976C345.821 581.972 346.093 583.097 346.478 584.644C346.862 586.191 347.425 588.021 348.052 589.816C348.679 591.61 349.374 593.373 350.022 594.782C350.347 595.487 350.652 596.099 350.953 596.603C351.253 597.107 351.491 597.489 351.924 597.807C352.235 598.036 352.509 598.119 352.882 598.244C353.255 598.37 353.714 598.505 354.251 598.641C355.324 598.912 356.715 599.211 358.341 599.531C361.594 600.17 365.76 600.884 369.932 601.556C374.104 602.228 378.284 602.853 381.576 603.321C384.87 603.79 387.131 604.093 387.938 604.128C389.094 604.177 390.424 604.368 391.619 604.058C392.217 603.903 392.851 603.553 393.193 602.909C393.536 602.266 393.519 601.493 393.289 600.651C393.015 599.653 392.259 598.646 391.21 597.299C390.16 595.952 388.817 594.386 387.392 592.824C384.543 589.701 381.423 586.604 379.742 585.217C378.264 583.996 375.208 580.863 372.231 577.991C370.742 576.555 369.257 575.182 367.961 574.106C366.665 573.03 365.677 572.223 364.595 571.971V571.973C364.367 571.917 364.142 571.899 363.913 571.903L363.912 571.902ZM415.946 589.522C414.419 589.536 412.863 589.652 411.292 589.882C404.11 590.937 397.93 594.154 393.718 598.576C389.506 602.998 387.261 608.66 388.11 614.446C388.96 620.232 392.738 625.01 398.043 628.035C403.349 631.059 410.194 632.377 417.376 631.322C424.559 630.268 430.75 627.036 434.962 622.614C439.174 618.192 441.406 612.531 440.557 606.745C439.707 600.959 435.942 596.179 430.637 593.155C426.492 590.792 421.401 589.48 415.946 589.521L415.946 589.522ZM451.071 570.689C450.521 570.836 449.939 571.139 449.142 571.579C448.345 572.018 447.402 572.582 446.419 573.221C444.453 574.5 442.334 576.056 440.905 577.435C439.407 578.881 437.712 581.432 436.321 583.675C434.93 585.918 433.885 587.835 433.885 587.835C433.766 588.049 433.736 588.302 433.803 588.538C433.87 588.774 434.027 588.974 434.241 589.094C434.348 589.152 434.465 589.189 434.586 589.202C434.708 589.215 434.83 589.204 434.947 589.17C435.064 589.136 435.173 589.079 435.268 589.002C435.363 588.926 435.442 588.831 435.5 588.724C435.5 588.724 436.532 586.844 437.894 584.647C439.257 582.45 440.998 579.915 442.191 578.763C443.453 577.545 445.53 576.018 447.432 574.781C448.383 574.162 449.287 573.618 450.032 573.207C450.776 572.797 451.41 572.519 451.551 572.482C451.621 572.461 452.073 572.447 452.591 572.524C453.108 572.601 453.713 572.741 454.287 572.893C455.436 573.198 456.436 573.55 456.436 573.55C456.668 573.63 456.922 573.614 457.143 573.506C457.363 573.398 457.532 573.208 457.612 572.975C457.693 572.745 457.679 572.492 457.574 572.272C457.469 572.051 457.281 571.881 457.051 571.799C457.051 571.799 455.998 571.427 454.766 571.101C454.15 570.938 453.49 570.783 452.864 570.69C452.238 570.597 451.67 570.531 451.072 570.69L451.071 570.689ZM466.192 588.902C465.381 588.881 464.419 588.923 463.387 588.998C461.322 589.151 458.983 589.476 457.065 589.956C455.063 590.457 452.292 591.686 449.95 592.802C447.607 593.918 445.721 594.923 445.721 594.923C445.613 594.98 445.517 595.058 445.439 595.152C445.362 595.247 445.303 595.355 445.268 595.472C445.232 595.589 445.22 595.712 445.232 595.834C445.244 595.956 445.28 596.074 445.338 596.182C445.396 596.289 445.475 596.383 445.57 596.46C445.665 596.536 445.774 596.593 445.891 596.627C446.008 596.662 446.13 596.673 446.251 596.659C446.373 596.646 446.49 596.609 446.597 596.551C446.597 596.551 448.441 595.581 450.743 594.485C453.044 593.388 455.836 592.168 457.516 591.748C459.28 591.307 461.553 590.991 463.523 590.845C464.508 590.772 465.425 590.745 466.151 590.763C466.876 590.777 467.45 590.874 467.56 590.914C467.933 591.048 469.009 591.942 469.804 592.788C470.599 593.635 471.213 594.416 471.213 594.416C471.366 594.609 471.589 594.732 471.832 594.76C472.076 594.789 472.321 594.719 472.513 594.567C472.707 594.417 472.834 594.195 472.864 593.951C472.895 593.707 472.828 593.461 472.677 593.267C472.677 593.267 472.017 592.431 471.158 591.516C470.299 590.601 469.344 589.58 468.189 589.162C467.624 588.958 467.002 588.922 466.191 588.902L466.192 588.902ZM432.492 587.332C429.323 587.367 426.773 588.427 425.472 589.94C425.379 590.051 425.313 590.183 425.28 590.325C425.248 590.466 425.249 590.613 425.283 590.754C425.318 590.895 425.385 591.026 425.48 591.137C425.574 591.247 425.693 591.333 425.827 591.389C431.247 593.611 439.048 599.337 440.223 610.368C440.244 610.585 440.34 610.787 440.495 610.94C440.65 611.092 440.854 611.186 441.071 611.203C442.277 611.298 443.331 610.592 444.437 609.574C445.542 608.557 446.622 607.117 447.352 605.374C448.812 601.888 448.743 597.102 444.519 592.676C444.514 592.671 444.509 592.666 444.505 592.662C440.709 588.891 436.599 587.453 433.134 587.34C432.918 587.333 432.703 587.333 432.493 587.333L432.492 587.332ZM412.507 649.361C412.472 649.362 412.437 649.363 412.403 649.367C411.376 649.475 410.208 649.836 409.078 650.187C407.949 650.538 406.854 650.885 406.218 651.008C405.685 651.111 405.388 651.413 405.097 651.72C404.805 652.028 404.534 652.396 404.262 652.815C403.717 653.654 403.166 654.698 402.633 655.769C402.1 656.841 401.586 657.929 401.156 658.821C400.726 659.713 400.324 660.468 400.224 660.601C400.231 660.587 400.016 660.809 399.692 661.066C399.368 661.323 398.925 661.654 398.418 662.024C397.405 662.764 396.113 663.696 394.793 664.733C392.154 666.806 389.359 669.203 388.539 671.876C388.152 673.135 388.203 674.236 388.649 675.092C389.094 675.947 389.883 676.456 390.673 676.719C391.464 676.981 392.291 677.036 393.027 676.98C393.762 676.924 394.377 676.787 394.915 676.473C395.329 676.23 396.216 675.624 397.46 674.762C398.705 673.901 400.253 672.818 401.784 671.712C403.315 670.606 404.827 669.478 406.013 668.55C406.605 668.087 407.12 667.682 407.518 667.333C407.915 666.983 408.172 666.795 408.421 666.361C408.766 665.762 409.724 664.243 410.624 662.708C411.074 661.94 411.518 661.161 411.869 660.463C412.22 659.766 412.484 659.189 412.594 658.603C412.71 657.982 413.272 655.843 413.621 653.923C413.795 652.963 413.933 652.049 413.922 651.282C413.915 650.898 413.894 650.548 413.716 650.159C413.63 649.965 413.494 649.753 413.251 649.586C413.039 649.44 412.754 649.36 412.506 649.362L412.507 649.361ZM364.576 611.3C364.378 611.308 364.187 611.379 364.032 611.504C360.96 613.915 358.769 616.004 357.3 618.25C355.83 620.495 355.132 622.894 355.069 625.707C355.067 625.748 355.067 625.79 355.069 625.831C356.123 635.486 364.792 643.03 374.856 647.258C384.92 651.486 396.5 652.518 404.028 648.545C405.715 647.655 407.231 645.444 408.202 642.826C409.173 640.208 409.499 637.085 407.806 634.698C407.721 634.576 407.608 634.477 407.478 634.408C407.347 634.338 407.201 634.302 407.053 634.3C384.818 634.478 372.098 622.593 365.401 611.737C365.332 611.626 365.24 611.531 365.131 611.458C365.023 611.385 364.9 611.336 364.772 611.313C364.707 611.302 364.642 611.297 364.577 611.299L364.576 611.3ZM358.23 631.906C358.058 631.905 357.888 631.951 357.741 632.04C357.593 632.13 357.474 632.258 357.395 632.412C354.816 637.677 354.803 641.555 356.711 645.397C359.369 650.746 365.005 654.733 371.722 657.001C378.439 659.27 386.278 659.833 393.478 658.15C397.106 657.302 400.241 653.821 400.17 649.448C400.169 649.311 400.138 649.177 400.079 649.053C400.02 648.93 399.935 648.821 399.829 648.735C399.723 648.648 399.599 648.586 399.466 648.554C399.333 648.521 399.195 648.518 399.061 648.544C390.651 650.229 382.044 648.636 374.828 645.371C367.611 642.105 361.815 637.147 359.036 632.357C358.953 632.218 358.835 632.103 358.693 632.024C358.552 631.944 358.392 631.904 358.229 631.906L358.23 631.906ZM360.807 648.56C360.713 648.56 360.619 648.574 360.529 648.602V648.601C360.372 648.65 360.23 648.741 360.12 648.864C360.009 648.987 359.933 649.137 359.9 649.299C358.709 655.073 360.185 660.025 363.184 663.448C366.182 666.871 370.665 668.779 375.375 668.661C384.655 668.429 389.791 662.548 389.715 657.892C389.714 657.766 389.687 657.642 389.637 657.527C389.586 657.412 389.512 657.308 389.42 657.222C389.328 657.136 389.219 657.07 389.101 657.028C388.982 656.985 388.856 656.968 388.731 656.976C379.338 657.57 369.413 656.504 361.446 648.821C361.274 648.655 361.046 648.562 360.807 648.561L360.807 648.56ZM407.909 641.61C407.401 641.613 406.88 641.749 406.423 642.059C405.364 642.778 404.598 644.146 403.906 645.549C403.56 646.251 403.262 646.948 403.071 647.574C402.88 648.2 402.658 648.666 402.962 649.421C403.205 650.024 403.641 650.764 404.193 651.446C404.469 651.786 404.766 652.101 405.11 652.363C405.454 652.625 405.871 652.876 406.451 652.843C406.874 652.822 407.276 652.711 407.847 652.555C408.417 652.4 409.092 652.195 409.776 651.967C411.144 651.511 412.474 651.034 413.266 650.544C413.628 650.32 413.857 649.936 413.95 649.586C414.042 649.236 414.037 648.909 413.992 648.587C413.9 647.943 413.647 647.285 413.336 646.631C412.715 645.323 411.872 644.054 411.119 643.319C410.485 642.701 409.829 642.148 409.039 641.827C408.693 641.687 408.305 641.608 407.91 641.61L407.909 641.61ZM426.951 647.306C426.809 647.306 426.667 647.31 426.525 647.313C425.384 647.348 424.29 647.479 423.419 648.011C422.427 648.617 422.072 649.673 421.79 650.679C421.509 651.686 421.358 652.724 421.228 653.361C421.079 654.097 420.633 655.94 420.38 657.685C420.254 658.558 420.183 659.407 420.217 660.161C420.231 660.538 420.266 660.895 420.38 661.243C420.495 661.591 420.705 661.967 421.12 662.214C421.815 662.627 422.529 662.535 423.227 662.378C423.924 662.221 424.655 661.945 425.361 661.612C426.774 660.946 428.055 660.129 428.727 659.532C429.128 659.176 429.499 658.692 429.945 658.081C430.39 657.47 430.866 656.761 431.314 656.084C432.208 654.729 432.97 653.497 432.97 653.497C433.077 653.326 433.125 653.125 433.107 652.924C433.025 652.106 432.753 651.034 432.244 650.022C431.735 649.009 430.966 647.999 429.726 647.642C428.929 647.412 427.948 647.304 426.952 647.305L426.951 647.306Z" fill="#202731"/>
<path d="M421.236 647.245C420.059 647.964 419.751 650.621 419.472 651.995C419.152 653.563 417.751 659.166 418.929 659.866C420.254 660.652 424.411 658.204 425.443 657.287C426.509 656.339 429.514 651.452 429.514 651.452C429.378 650.078 428.531 647.472 426.8 646.973C425.277 646.535 422.395 646.537 421.236 647.244V647.245Z" fill="#906715" stroke="#906715" stroke-width="2.72865" stroke-linecap="round" stroke-linejoin="round"/>
<path d="M401.13 647.525C401.499 648.442 402.834 650.425 403.709 650.375C404.583 650.326 408.923 648.924 410.087 648.204C411.251 647.483 408.97 643.598 407.78 642.436C406.588 641.273 405.394 640.508 404.251 641.283C402.897 642.202 400.761 646.609 401.13 647.525Z" fill="#906715" stroke="#906715" stroke-width="2.72865" stroke-linecap="round" stroke-linejoin="round"/>
<path d="M358.135 647.945C366.348 655.866 376.616 656.967 386.122 656.365C386.185 660.278 381.571 665.966 372.678 666.188C363.785 666.411 355.855 658.995 358.135 647.944V647.945Z" fill="#392909" stroke="#392909" stroke-width="2.72865" stroke-linecap="round" stroke-linejoin="round"/>
<path d="M355.556 631.271C361.393 641.329 379.293 651.362 396.572 647.901C396.635 651.815 393.78 654.945 390.592 655.69C376.572 658.966 359.876 653.517 354.867 643.435C353.059 639.798 353.049 636.388 355.557 631.271L355.556 631.271Z" fill="#E6A522" stroke="#E6A522" stroke-width="2.72865" stroke-linecap="round" stroke-linejoin="round"/>
<path d="M361.938 610.674C368.754 621.723 381.813 633.861 404.383 633.681C407.246 637.718 403.426 644.852 400.928 646.17C386.705 653.675 355.317 642.483 353.32 624.171C353.438 618.817 355.866 615.439 361.938 610.674H361.938Z" fill="#392909" stroke="#392909" stroke-width="2.72865" stroke-linecap="round" stroke-linejoin="round"/>
<path d="M403.722 650.396C402.209 650.689 399.221 658.385 398.293 659.625C397.366 660.864 388.113 666.202 386.758 670.617C385.403 675.031 390.535 674.873 391.779 674.145C393.024 673.418 404.263 665.556 404.943 664.374C405.696 663.067 408.735 658.401 409.015 656.91C409.294 655.419 411.198 648.623 409.829 648.768C408.068 648.954 405.229 650.105 403.722 650.396L403.722 650.396Z" fill="#906715" stroke="#906715" stroke-width="2.72865" stroke-linecap="round" stroke-linejoin="round"/>
<path d="M423.479 589.025C429.13 591.342 437.227 597.333 438.445 608.76C441.099 608.97 449.166 600.196 441.155 591.801C433.869 584.561 425.656 586.494 423.479 589.025L423.479 589.025Z" fill="#E6A522" stroke="#E6A522" stroke-width="2.72865" stroke-linecap="round" stroke-linejoin="round"/>
<path d="M463.552 587.344C462.741 587.323 461.779 587.365 460.747 587.44C458.683 587.593 456.343 587.918 454.425 588.398C452.424 588.899 449.652 590.128 447.31 591.244C444.968 592.36 443.082 593.365 443.082 593.365C442.974 593.422 442.878 593.5 442.8 593.594C442.722 593.688 442.664 593.797 442.628 593.914C442.592 594.031 442.58 594.154 442.592 594.276C442.605 594.398 442.641 594.516 442.699 594.624C442.757 594.731 442.836 594.825 442.931 594.901C443.026 594.978 443.135 595.035 443.251 595.069C443.368 595.103 443.491 595.114 443.612 595.101C443.733 595.088 443.851 595.051 443.958 594.993C443.958 594.993 445.802 594.023 448.104 592.927C450.405 591.83 453.197 590.61 454.877 590.19C456.64 589.748 458.913 589.433 460.884 589.287C461.869 589.214 462.786 589.187 463.511 589.205C464.236 589.219 464.811 589.316 464.92 589.355C465.293 589.49 466.37 590.384 467.165 591.23C467.959 592.077 468.574 592.858 468.574 592.858C468.727 593.05 468.949 593.174 469.193 593.202C469.436 593.23 469.681 593.161 469.874 593.009C470.068 592.858 470.194 592.637 470.225 592.393C470.256 592.149 470.188 591.903 470.038 591.709C470.038 591.709 469.378 590.873 468.519 589.958C467.66 589.042 466.705 588.022 465.55 587.604C464.985 587.399 464.363 587.364 463.552 587.344L463.552 587.344Z" fill="#E6A522"/>
<path d="M448.42 569.128C447.87 569.275 447.287 569.578 446.49 570.017C445.694 570.457 444.75 571.02 443.767 571.66C441.801 572.938 439.682 574.495 438.253 575.874C436.755 577.32 435.06 579.871 433.669 582.114C432.278 584.356 431.233 586.273 431.233 586.273C431.114 586.488 431.084 586.74 431.151 586.976C431.218 587.212 431.375 587.412 431.589 587.532C431.696 587.591 431.813 587.628 431.935 587.641C432.056 587.654 432.178 587.643 432.295 587.609C432.412 587.575 432.521 587.517 432.616 587.441C432.711 587.364 432.79 587.27 432.848 587.163C432.848 587.163 433.88 585.282 435.243 583.085C436.605 580.889 438.346 578.353 439.539 577.202C440.801 575.983 442.879 574.456 444.78 573.22C445.731 572.601 446.635 572.057 447.38 571.646C448.124 571.235 448.758 570.958 448.899 570.921C448.969 570.9 449.421 570.886 449.939 570.963C450.456 571.04 451.061 571.18 451.635 571.332C452.784 571.637 453.784 571.989 453.784 571.989C454.016 572.068 454.27 572.052 454.491 571.945C454.711 571.837 454.88 571.646 454.96 571.414C455.041 571.184 455.027 570.931 454.922 570.71C454.817 570.49 454.629 570.32 454.399 570.237C454.399 570.237 453.346 569.866 452.114 569.54C451.498 569.376 450.838 569.222 450.212 569.129C449.586 569.036 449.018 568.969 448.42 569.129V569.128Z" fill="#E6A522"/>
<path d="M436.985 605.387C437.756 610.637 435.83 616.064 431.63 620.473C427.43 624.882 421.301 627.912 414.591 628.898C407.88 629.883 401.139 628.742 395.849 625.726C390.559 622.711 387.154 618.067 386.383 612.816C385.612 607.566 387.539 602.14 391.738 597.73C395.938 593.321 402.067 590.291 408.778 589.306C415.488 588.321 422.229 589.461 427.519 592.477C432.809 595.493 436.214 600.137 436.985 605.387Z" fill="#392909"/>
<path d="M408.642 588.376C401.46 589.43 395.28 592.647 391.068 597.069C386.856 601.491 384.61 607.153 385.46 612.94C386.309 618.726 390.088 623.504 395.393 626.528C400.699 629.553 407.544 630.871 414.726 629.817C421.909 628.762 428.1 625.53 432.312 621.108C436.524 616.686 438.756 611.026 437.907 605.239C437.057 599.453 433.292 594.673 427.987 591.649C422.682 588.624 415.825 587.321 408.642 588.376ZM408.912 590.217C415.703 589.22 422.147 590.484 427.05 593.28C431.954 596.075 435.309 600.363 436.065 605.51C436.821 610.657 434.839 615.728 430.946 619.815C427.053 623.902 421.245 626.965 414.454 627.962C407.663 628.959 401.22 627.695 396.316 624.9C391.413 622.104 388.07 617.814 387.315 612.667C386.559 607.521 388.527 602.452 392.42 598.364C396.314 594.277 402.121 591.214 408.912 590.217Z" fill="#392909"/>
<path d="M385.296 601.706C382.902 601.602 351.76 597.012 349.79 595.565C348.156 594.364 343.814 581.936 344.225 579.635C344.569 577.705 359.013 570.761 361.69 571.382C364.367 572.005 373.293 581.812 376.468 584.433C379.643 587.054 389.019 596.878 389.71 599.403C390.489 602.247 387.69 601.81 385.296 601.706V601.706Z" fill="#F9E8C8" stroke="#F9E8C8" stroke-width="2.72865"/>
<path d="M397.907 597.993C398.216 596.001 385.682 551.979 382.403 548.724C379.123 545.469 352.993 535.54 350.222 536.017C347.451 536.494 343.338 544.829 343.03 548.095C342.721 551.361 344.896 562.155 346.422 563.43C348.439 565.113 353.31 565.5 361.537 571.801C369.763 578.103 387.45 600.843 390.171 601.793C392.892 602.742 397.598 599.985 397.907 597.993H397.907Z" fill="#F9E8C8" stroke="#F9E8C8" stroke-width="2.72865" stroke-linecap="round" stroke-linejoin="round"/>
<path d="M411.078 620.412C410.886 622.523 415.447 643.272 417.699 644.594C419.951 645.917 445.488 651.815 446.296 650.064C447.193 648.119 432.208 630.886 430.27 629.145C428.333 627.404 415.305 617.796 413.381 618.013C411.207 618.258 411.078 620.412 411.078 620.412H411.078Z" fill="#F9E8C8" stroke="#F9E8C8" stroke-width="2.72865"/>
<path d="M414.861 612.425C416.719 611.917 439.666 608.855 441.73 608.683C443.794 608.511 463.98 609.211 466.2 609.451C468.733 609.725 476.292 612.413 478.004 613.481C479.716 614.549 488.149 625.353 489.04 627.3C489.93 629.246 489.368 635.888 488.272 637.471C487.144 639.101 463.452 648.181 460.539 648.027C457.626 647.874 414.944 618.937 414.19 617.128C413.436 615.318 412.73 613.009 414.862 612.426L414.861 612.425Z" fill="#F9E8C8" stroke="#F9E8C8" stroke-width="2.72865"/>
<path d="M362.296 608.011C362.558 601.276 374.599 602.071 381.076 602.686C389.157 603.454 397.603 607.772 402.834 613.619C406.019 617.18 410.93 628.914 408.785 631.955C406.64 634.995 391.433 634.212 381.664 628.793C371.895 623.375 362.032 614.747 362.295 608.012L362.296 608.011Z" fill="#E6A522" stroke="#E6A522" stroke-width="2.72865" stroke-linecap="round" stroke-linejoin="round"/>
<path d="M246.534 148.867C248.113 148.874 249.709 148.96 251.214 149.181V149.183C253.22 149.478 255.086 150.001 256.537 150.989C257.987 151.977 258.992 153.517 259.069 155.477C259.218 159.311 256.622 163.291 252.883 167.053C249.145 170.814 244.179 174.364 239.227 177.11C234.181 179.909 227.842 181.464 222.439 181.968C219.737 182.219 217.279 182.21 215.295 181.926C213.311 181.642 211.748 181.18 210.904 179.983C210.11 178.858 210.092 177.371 210.314 175.686C210.536 174.001 211.07 172.096 211.765 170.173C213.154 166.326 215.138 162.479 216.91 160.498C222.32 154.45 230.937 150.056 239.283 149.264C241.317 149.071 243.902 148.857 246.534 148.867L246.534 148.867ZM177.624 155.269C178.117 155.27 178.499 155.276 178.758 155.304V155.303C179.96 155.403 186.087 156.203 192.318 157.054C195.433 157.479 198.543 157.91 200.993 158.272C202.218 158.453 203.282 158.616 204.099 158.751C204.798 158.865 205.203 158.956 205.55 159.038C205.606 159.052 205.746 159.066 205.797 159.08C206.492 159.27 207.069 159.651 207.424 160.174C207.779 160.698 207.892 161.305 207.889 161.87C207.882 163.001 207.473 164.093 207.082 165.032C206.951 165.346 206.833 165.426 206.699 165.566C206.565 165.706 206.409 165.851 206.219 166.018C205.839 166.351 205.331 166.76 204.7 167.249C203.439 168.226 201.693 169.51 199.611 170.999C195.447 173.976 189.938 177.763 184.367 181.507C178.797 185.251 173.165 188.944 168.727 191.715C166.509 193.101 164.588 194.258 163.117 195.081C162.382 195.492 161.764 195.83 161.257 196.067C160.749 196.303 160.45 196.476 159.916 196.504C159.279 196.539 158.617 196.365 157.658 196.121C156.698 195.876 155.518 195.525 154.182 195.094C151.51 194.231 148.227 193.055 145.001 191.823C141.775 190.592 138.61 189.313 136.161 188.225C134.937 187.68 133.891 187.183 133.097 186.762C132.699 186.551 132.374 186.354 132.097 186.172C131.821 185.989 131.602 185.875 131.373 185.543C130.947 184.928 130.729 184.161 130.523 183.23C130.318 182.299 130.172 181.226 130.086 180.138C130 179.051 129.973 177.954 130.03 176.977C130.086 175.999 130.201 175.161 130.522 174.459C130.84 173.764 131.526 172.794 132.479 171.476C133.432 170.158 134.635 168.577 135.859 167.029C137.083 165.481 138.328 163.958 139.389 162.747C140.45 161.535 141.187 160.7 141.92 160.242C143 159.568 145.246 158.684 147.695 157.835C150.144 156.985 152.622 156.229 154.112 156.068C154.769 155.997 156.4 155.919 158.641 155.822C160.883 155.725 163.675 155.627 166.468 155.535C169.262 155.443 172.057 155.361 174.281 155.316C175.671 155.288 176.801 155.267 177.622 155.267L177.624 155.269ZM206.952 164.601C207.029 164.602 207.11 164.608 207.195 164.615C208.58 164.772 209.471 165.621 209.877 166.38C210.275 167.127 210.314 167.82 210.315 167.844C210.357 168.341 210.294 168.856 210.177 169.651C210.063 170.445 209.878 171.451 209.658 172.592C209.219 174.875 208.596 177.718 207.893 180.543C207.19 183.367 206.419 186.163 205.663 188.37C205.285 189.473 204.909 190.433 204.541 191.188C204.173 191.944 203.919 192.513 203.241 192.912C202.759 193.195 202.138 193.388 201.202 193.679C200.265 193.97 199.07 194.305 197.699 194.664C194.958 195.38 191.518 196.195 188.12 196.908C184.722 197.622 181.376 198.23 178.789 198.563C177.496 198.73 176.389 198.828 175.532 198.823C175.104 198.821 174.742 198.809 174.396 198.728C174.05 198.65 173.594 198.552 173.328 197.976C173.115 197.513 173.202 197.145 173.286 196.812C173.373 196.479 173.515 196.151 173.695 195.786C174.058 195.056 174.589 194.191 175.256 193.213C176.592 191.257 178.453 188.85 180.4 186.454C182.348 184.058 184.381 181.677 186.052 179.777C187.723 177.877 188.975 176.519 189.583 175.973C190.69 174.979 194.359 172.204 198.121 169.596C200.001 168.292 201.887 167.052 203.443 166.134C204.222 165.675 204.914 165.295 205.51 165.026C206.032 164.791 206.411 164.594 206.951 164.599L206.952 164.601ZM269.856 82.6114C270.037 82.6104 270.216 82.6252 270.399 82.6533C271.499 82.8424 272.348 83.6099 273.191 84.5826C274.035 85.5554 274.843 86.7831 275.572 88.0995C277.03 90.7324 278.166 93.6135 278.35 95.5571C278.532 97.4886 278.044 100.931 277.337 104.247C276.984 105.906 276.563 107.497 276.133 108.79C275.918 109.436 275.708 110.008 275.477 110.487C275.245 110.966 275.024 111.359 274.628 111.69C273.364 112.745 271.635 113.202 269.182 114.277C266.728 115.352 263.544 116.975 259.494 120.078C255.553 123.096 249.024 130.376 243.238 136.964C240.345 140.257 237.622 143.383 235.438 145.762C234.347 146.952 233.394 147.953 232.607 148.704C231.819 149.455 231.331 149.952 230.595 150.209C228.814 150.831 226.78 150.258 225.08 149.361C224.23 148.914 223.473 148.366 222.863 147.761C222.255 147.155 221.773 146.498 221.645 145.68C221.57 145.193 221.646 144.991 221.727 144.531C221.808 144.072 221.936 143.489 222.097 142.78C222.421 141.361 222.9 139.459 223.493 137.224C224.679 132.753 226.321 126.945 228.076 121.105C229.831 115.265 231.692 109.393 233.331 104.753C234.151 102.433 234.919 100.42 235.589 98.8685C236.259 97.3168 236.733 96.2838 237.409 95.6129C238.498 94.5316 240.707 93.3936 243.69 91.9995C246.672 90.6052 250.347 89.0699 254.006 87.6492C257.666 86.2285 261.309 84.9327 264.228 84.0092C265.687 83.5475 266.953 83.1688 267.977 82.9278C268.744 82.747 269.312 82.6127 269.856 82.6099L269.856 82.6114ZM259.205 117.902C259.586 117.907 259.979 117.979 260.424 118.069C261.134 118.215 261.953 118.46 262.846 118.766C264.631 119.377 266.723 120.254 268.744 121.216C270.764 122.178 272.711 123.215 274.203 124.158C274.949 124.629 275.573 125.076 276.063 125.499C276.554 125.921 276.984 126.231 277.117 126.976C277.295 127.972 277.024 129.097 276.638 130.644C276.254 132.191 275.691 134.021 275.064 135.816C274.437 137.61 273.742 139.373 273.094 140.782C272.769 141.487 272.464 142.099 272.164 142.603C271.863 143.107 271.625 143.489 271.192 143.807C270.881 144.036 270.607 144.119 270.234 144.244C269.862 144.37 269.402 144.505 268.865 144.641C267.792 144.912 266.401 145.211 264.775 145.531C261.522 146.17 257.356 146.884 253.184 147.556C249.013 148.228 244.833 148.853 241.54 149.321C238.247 149.79 235.985 150.093 235.178 150.128C234.022 150.177 232.692 150.368 231.497 150.058C230.899 149.903 230.266 149.553 229.923 148.909C229.58 148.266 229.597 147.493 229.828 146.651C230.101 145.653 230.857 144.646 231.907 143.299C232.956 141.952 234.299 140.386 235.724 138.824C238.574 135.701 241.694 132.604 243.374 131.217C244.852 129.996 247.908 126.863 250.886 123.991C252.374 122.555 253.859 121.182 255.155 120.106C256.451 119.03 257.439 118.223 258.521 117.971V117.973C258.749 117.917 258.974 117.899 259.203 117.903L259.205 117.902ZM207.17 135.522C208.697 135.536 210.253 135.652 211.824 135.882C219.006 136.937 225.186 140.154 229.398 144.576C233.61 148.998 235.855 154.66 235.006 160.446C234.156 166.232 230.378 171.01 225.073 174.035C219.768 177.059 212.923 178.377 205.74 177.322C198.558 176.268 192.366 173.036 188.154 168.614C183.942 164.192 181.71 158.531 182.559 152.745C183.409 146.959 187.174 142.179 192.479 139.155C196.624 136.792 201.716 135.48 207.17 135.521L207.17 135.522ZM172.045 116.689C172.595 116.836 173.177 117.139 173.974 117.579C174.771 118.018 175.714 118.582 176.697 119.221C178.663 120.5 180.783 122.056 182.211 123.435C183.709 124.881 185.404 127.432 186.795 129.675C188.187 131.918 189.231 133.835 189.231 133.835C189.35 134.049 189.38 134.302 189.313 134.538C189.246 134.774 189.089 134.974 188.875 135.094C188.768 135.152 188.651 135.189 188.53 135.202C188.409 135.215 188.286 135.204 188.169 135.17C188.052 135.136 187.943 135.079 187.848 135.002C187.753 134.926 187.675 134.831 187.616 134.724C187.616 134.724 186.584 132.844 185.222 130.647C183.859 128.45 182.118 125.915 180.925 124.763C179.663 123.545 177.586 122.018 175.684 120.781C174.734 120.162 173.829 119.618 173.084 119.207C172.34 118.797 171.706 118.519 171.566 118.482C171.496 118.461 171.043 118.447 170.526 118.524C170.009 118.601 169.403 118.741 168.829 118.893C167.68 119.198 166.681 119.55 166.681 119.55C166.448 119.63 166.194 119.614 165.973 119.506C165.753 119.398 165.584 119.208 165.504 118.975C165.423 118.745 165.437 118.492 165.543 118.272C165.648 118.051 165.835 117.881 166.065 117.799C166.065 117.799 167.118 117.427 168.35 117.101C168.966 116.938 169.626 116.783 170.252 116.69C170.878 116.597 171.447 116.531 172.045 116.69L172.045 116.689ZM156.925 134.902C157.735 134.881 158.698 134.923 159.73 134.998C161.794 135.151 164.133 135.476 166.051 135.956C168.053 136.457 170.825 137.686 173.167 138.802C175.509 139.918 177.395 140.923 177.395 140.923C177.503 140.98 177.599 141.058 177.677 141.152C177.755 141.247 177.813 141.355 177.849 141.472C177.884 141.589 177.896 141.712 177.884 141.834C177.872 141.956 177.836 142.074 177.778 142.182C177.72 142.289 177.641 142.383 177.546 142.46C177.451 142.536 177.342 142.593 177.225 142.627C177.108 142.662 176.986 142.673 176.865 142.659C176.744 142.646 176.626 142.609 176.519 142.551C176.519 142.551 174.675 141.581 172.373 140.485C170.072 139.388 167.28 138.168 165.6 137.748C163.837 137.307 161.563 136.991 159.593 136.845C158.608 136.772 157.691 136.745 156.966 136.763C156.241 136.777 155.666 136.874 155.556 136.914C155.184 137.048 154.107 137.942 153.312 138.788C152.518 139.635 151.903 140.416 151.903 140.416C151.75 140.609 151.528 140.732 151.284 140.76C151.04 140.789 150.795 140.719 150.603 140.567C150.409 140.417 150.283 140.195 150.252 139.951C150.221 139.707 150.288 139.461 150.439 139.267C150.439 139.267 151.099 138.431 151.958 137.516C152.817 136.601 153.772 135.58 154.927 135.162C155.492 134.958 156.114 134.922 156.925 134.902L156.925 134.902ZM190.624 133.332C193.793 133.367 196.343 134.427 197.644 135.94C197.737 136.051 197.803 136.183 197.836 136.325C197.868 136.466 197.868 136.613 197.833 136.754C197.798 136.895 197.731 137.026 197.637 137.137C197.542 137.247 197.423 137.333 197.289 137.389C191.869 139.611 184.068 145.337 182.893 156.368C182.872 156.585 182.776 156.787 182.621 156.94C182.466 157.092 182.262 157.186 182.045 157.203C180.839 157.298 179.785 156.592 178.68 155.574C177.574 154.557 176.494 153.117 175.764 151.374C174.305 147.888 174.373 143.102 178.597 138.676C178.602 138.671 178.607 138.666 178.612 138.662C182.407 134.891 186.517 133.453 189.982 133.34C190.199 133.333 190.413 133.333 190.623 133.333L190.624 133.332ZM210.609 195.361C210.644 195.362 210.679 195.363 210.713 195.367C211.741 195.475 212.908 195.836 214.038 196.187C215.167 196.538 216.262 196.885 216.899 197.008C217.432 197.111 217.728 197.413 218.02 197.72C218.311 198.028 218.582 198.396 218.854 198.815C219.399 199.654 219.95 200.698 220.483 201.769C221.016 202.841 221.53 203.929 221.96 204.821C222.39 205.713 222.793 206.468 222.892 206.601C222.885 206.587 223.1 206.809 223.424 207.066C223.748 207.323 224.191 207.654 224.698 208.024C225.711 208.764 227.003 209.696 228.323 210.733C230.963 212.806 233.757 215.203 234.577 217.876C234.964 219.135 234.913 220.236 234.468 221.092C234.022 221.947 233.234 222.456 232.443 222.719C231.652 222.981 230.825 223.036 230.09 222.98C229.354 222.924 228.739 222.787 228.201 222.473C227.787 222.23 226.901 221.624 225.656 220.762C224.411 219.901 222.863 218.818 221.332 217.712C219.801 216.606 218.289 215.478 217.104 214.55C216.511 214.087 215.996 213.682 215.598 213.333C215.201 212.983 214.944 212.795 214.695 212.361C214.35 211.762 213.392 210.243 212.492 208.708C212.043 207.94 211.598 207.161 211.247 206.463C210.896 205.766 210.632 205.189 210.522 204.603C210.406 203.982 209.845 201.843 209.495 199.923C209.321 198.963 209.183 198.049 209.195 197.282C209.201 196.898 209.223 196.548 209.4 196.159C209.487 195.965 209.623 195.753 209.865 195.586C210.077 195.44 210.362 195.36 210.61 195.362L210.609 195.361ZM258.54 157.3C258.739 157.308 258.929 157.379 259.084 157.504C262.156 159.915 264.347 162.004 265.817 164.25C267.286 166.495 267.985 168.894 268.047 171.707C268.05 171.748 268.05 171.79 268.047 171.831C266.994 181.486 258.325 189.03 248.261 193.258C238.197 197.486 226.616 198.518 219.088 194.545C217.401 193.655 215.885 191.444 214.914 188.826C213.943 186.208 213.617 183.085 215.311 180.698C215.395 180.576 215.508 180.477 215.639 180.408C215.77 180.338 215.915 180.302 216.063 180.3C238.298 180.478 251.019 168.593 257.715 157.737C257.785 157.626 257.876 157.531 257.985 157.458C258.093 157.385 258.216 157.336 258.345 157.313C258.409 157.302 258.474 157.297 258.539 157.299L258.54 157.3ZM264.886 177.906C265.059 177.905 265.228 177.951 265.376 178.04C265.523 178.13 265.643 178.258 265.721 178.412C268.3 183.677 268.314 187.555 266.405 191.397C263.747 196.746 258.111 200.733 251.394 203.001C244.677 205.27 236.838 205.833 229.638 204.15C226.01 203.302 222.876 199.821 222.946 195.448C222.947 195.311 222.978 195.177 223.037 195.053C223.096 194.93 223.182 194.821 223.288 194.735C223.394 194.648 223.517 194.586 223.65 194.554C223.783 194.521 223.921 194.518 224.055 194.544C232.465 196.229 241.073 194.636 248.289 191.371C255.505 188.105 261.301 183.147 264.08 178.357C264.163 178.218 264.281 178.103 264.423 178.024C264.565 177.944 264.725 177.904 264.887 177.906L264.886 177.906ZM262.309 194.56C262.403 194.56 262.497 194.574 262.587 194.602V194.601C262.745 194.65 262.886 194.741 262.997 194.864C263.107 194.987 263.183 195.137 263.216 195.299C264.407 201.073 262.931 206.025 259.933 209.448C256.934 212.871 252.452 214.779 247.741 214.661C238.461 214.429 233.325 208.548 233.401 203.892C233.402 203.766 233.429 203.642 233.48 203.527C233.53 203.412 233.604 203.308 233.696 203.222C233.788 203.136 233.897 203.07 234.016 203.028C234.134 202.985 234.26 202.968 234.386 202.976C243.778 203.57 253.703 202.504 261.67 194.821C261.842 194.655 262.071 194.562 262.309 194.561L262.309 194.56ZM215.207 187.61C215.715 187.613 216.236 187.749 216.693 188.059C217.753 188.778 218.518 190.146 219.21 191.549C219.557 192.251 219.854 192.948 220.045 193.574C220.236 194.2 220.458 194.666 220.154 195.421C219.911 196.024 219.475 196.764 218.923 197.446C218.647 197.786 218.351 198.101 218.006 198.363C217.662 198.625 217.246 198.876 216.665 198.843C216.242 198.822 215.84 198.711 215.27 198.555C214.699 198.4 214.024 198.195 213.34 197.967C211.972 197.511 210.642 197.034 209.85 196.544C209.489 196.32 209.259 195.936 209.166 195.586C209.074 195.236 209.079 194.909 209.124 194.587C209.216 193.943 209.47 193.285 209.78 192.631C210.401 191.323 211.244 190.054 211.997 189.319C212.631 188.701 213.287 188.148 214.077 187.827C214.423 187.687 214.811 187.608 215.206 187.61L215.207 187.61ZM196.165 193.306C196.307 193.306 196.449 193.31 196.591 193.313C197.732 193.348 198.827 193.479 199.697 194.011C200.689 194.617 201.044 195.673 201.326 196.679C201.607 197.686 201.758 198.724 201.888 199.361C202.038 200.097 202.483 201.94 202.736 203.685C202.862 204.558 202.933 205.407 202.899 206.161C202.885 206.538 202.85 206.895 202.736 207.243C202.621 207.591 202.412 207.967 201.997 208.214C201.301 208.627 200.587 208.535 199.89 208.378C199.192 208.221 198.461 207.945 197.755 207.612C196.342 206.946 195.061 206.129 194.389 205.532C193.988 205.176 193.617 204.692 193.171 204.081C192.726 203.47 192.25 202.761 191.803 202.084C190.908 200.729 190.146 199.497 190.146 199.497C190.039 199.326 189.992 199.125 190.01 198.924C190.091 198.106 190.364 197.034 190.872 196.022C191.381 195.009 192.15 193.999 193.39 193.642C194.187 193.412 195.168 193.304 196.165 193.305L196.165 193.306Z" fill="#202731"/>
<path d="M201.88 193.245C203.057 193.964 203.365 196.621 203.644 197.995C203.964 199.563 205.366 205.166 204.187 205.866C202.862 206.652 198.705 204.204 197.673 203.287C196.607 202.339 193.602 197.452 193.602 197.452C193.739 196.078 194.585 193.472 196.316 192.973C197.839 192.535 200.721 192.537 201.88 193.244V193.245Z" fill="#906715" stroke="#906715" stroke-width="2.72865" stroke-linecap="round" stroke-linejoin="round"/>
<path d="M221.986 193.525C221.618 194.442 220.282 196.425 219.408 196.375C218.533 196.326 214.193 194.924 213.029 194.204C211.866 193.483 214.146 189.598 215.336 188.436C216.528 187.273 217.723 186.508 218.865 187.283C220.22 188.202 222.355 192.609 221.986 193.525Z" fill="#906715" stroke="#906715" stroke-width="2.72865" stroke-linecap="round" stroke-linejoin="round"/>
<path d="M264.982 193.945C256.768 201.866 246.5 202.967 236.995 202.365C236.931 206.278 241.545 211.966 250.438 212.188C259.331 212.411 267.261 204.995 264.982 193.944V193.945Z" fill="#392909" stroke="#392909" stroke-width="2.72865" stroke-linecap="round" stroke-linejoin="round"/>
<path d="M267.56 177.271C261.724 187.329 243.824 197.362 226.544 193.901C226.481 197.815 229.337 200.945 232.524 201.69C246.544 204.966 263.24 199.517 268.25 189.435C270.057 185.798 270.067 182.388 267.56 177.271L267.56 177.271Z" fill="#E6A522" stroke="#E6A522" stroke-width="2.72865" stroke-linecap="round" stroke-linejoin="round"/>
<path d="M261.178 156.674C254.362 167.723 241.304 179.861 218.733 179.681C215.87 183.718 219.69 190.852 222.189 192.17C236.411 199.675 267.799 188.483 269.796 170.171C269.678 164.817 267.25 161.439 261.178 156.674H261.178Z" fill="#392909" stroke="#392909" stroke-width="2.72865" stroke-linecap="round" stroke-linejoin="round"/>
<path d="M219.395 196.396C220.908 196.689 223.896 204.385 224.823 205.625C225.75 206.864 235.003 212.202 236.358 216.617C237.713 221.031 232.581 220.873 231.337 220.145C230.093 219.418 218.853 211.556 218.173 210.374C217.421 209.067 214.381 204.401 214.102 202.91C213.822 201.419 211.918 194.623 213.287 194.768C215.048 194.954 217.887 196.105 219.394 196.396L219.395 196.396Z" fill="#906715" stroke="#906715" stroke-width="2.72865" stroke-linecap="round" stroke-linejoin="round"/>
<path d="M199.638 135.025C193.986 137.342 185.889 143.333 184.672 154.76C182.017 154.97 173.951 146.196 181.961 137.801C189.247 130.561 197.461 132.494 199.637 135.025L199.638 135.025Z" fill="#E6A522" stroke="#E6A522" stroke-width="2.72865" stroke-linecap="round" stroke-linejoin="round"/>
<path d="M159.564 133.344C160.375 133.323 161.337 133.365 162.369 133.44C164.434 133.593 166.773 133.918 168.691 134.398C170.693 134.899 173.464 136.128 175.806 137.244C178.148 138.36 180.034 139.365 180.034 139.365C180.143 139.422 180.238 139.5 180.316 139.594C180.394 139.688 180.452 139.797 180.488 139.914C180.524 140.031 180.536 140.154 180.524 140.276C180.512 140.398 180.476 140.516 180.418 140.624C180.359 140.731 180.28 140.825 180.186 140.901C180.091 140.978 179.982 141.035 179.865 141.069C179.748 141.103 179.625 141.114 179.504 141.101C179.383 141.088 179.266 141.051 179.159 140.993C179.159 140.993 177.314 140.023 175.013 138.927C172.711 137.83 169.919 136.61 168.239 136.19C166.476 135.748 164.203 135.433 162.232 135.287C161.247 135.214 160.33 135.187 159.605 135.205C158.88 135.219 158.306 135.316 158.196 135.355C157.823 135.49 156.746 136.384 155.952 137.23C155.157 138.077 154.542 138.858 154.542 138.858C154.39 139.05 154.167 139.174 153.923 139.202C153.68 139.23 153.435 139.161 153.242 139.009C153.048 138.858 152.922 138.637 152.891 138.393C152.861 138.149 152.928 137.903 153.078 137.709C153.078 137.709 153.738 136.873 154.597 135.958C155.456 135.042 156.411 134.022 157.567 133.604C158.131 133.399 158.754 133.364 159.564 133.344L159.564 133.344Z" fill="#E6A522"/>
<path d="M174.697 115.128C175.247 115.275 175.829 115.578 176.626 116.017C177.423 116.457 178.366 117.02 179.349 117.66C181.315 118.938 183.435 120.495 184.863 121.874C186.361 123.32 188.056 125.871 189.447 128.114C190.839 130.356 191.883 132.273 191.883 132.273C192.002 132.488 192.032 132.74 191.965 132.976C191.898 133.212 191.741 133.412 191.527 133.532C191.42 133.591 191.303 133.628 191.182 133.641C191.061 133.654 190.938 133.643 190.821 133.609C190.704 133.575 190.595 133.517 190.5 133.441C190.405 133.364 190.327 133.27 190.268 133.163C190.268 133.163 189.236 131.282 187.874 129.085C186.511 126.889 184.77 124.353 183.577 123.202C182.315 121.983 180.238 120.456 178.336 119.22C177.386 118.601 176.481 118.057 175.736 117.646C174.992 117.235 174.358 116.958 174.218 116.921C174.148 116.9 173.695 116.886 173.178 116.963C172.661 117.04 172.055 117.18 171.481 117.332C170.332 117.637 169.333 117.989 169.333 117.989C169.1 118.068 168.846 118.052 168.625 117.945C168.405 117.837 168.236 117.646 168.156 117.414C168.076 117.184 168.089 116.931 168.194 116.71C168.3 116.49 168.487 116.32 168.717 116.237C168.717 116.237 169.77 115.866 171.002 115.54C171.618 115.376 172.278 115.222 172.904 115.129C173.53 115.036 174.099 114.969 174.697 115.129V115.128Z" fill="#E6A522"/>
<path d="M186.131 151.387C185.36 156.637 187.287 162.064 191.486 166.473C195.686 170.882 201.815 173.912 208.526 174.898C215.236 175.883 221.978 174.742 227.267 171.726C232.557 168.711 235.962 164.067 236.733 158.816C237.504 153.566 235.578 148.14 231.378 143.73C227.178 139.321 221.049 136.291 214.339 135.306C207.628 134.321 200.887 135.461 195.597 138.477C190.307 141.493 186.902 146.137 186.131 151.387Z" fill="#392909"/>
<path d="M214.474 134.376C221.657 135.43 227.836 138.647 232.048 143.069C236.26 147.491 238.506 153.153 237.657 158.94C236.807 164.726 233.028 169.504 227.723 172.528C222.418 175.553 215.572 176.871 208.39 175.817C201.207 174.762 195.016 171.53 190.804 167.108C186.592 162.686 184.36 157.026 185.209 151.239C186.059 145.453 189.824 140.673 195.129 137.649C200.434 134.624 207.292 133.321 214.474 134.376ZM214.204 136.217C207.413 135.22 200.969 136.484 196.066 139.28C191.162 142.075 187.807 146.363 187.051 151.51C186.295 156.657 188.277 161.728 192.17 165.815C196.063 169.902 201.871 172.965 208.662 173.962C215.453 174.959 221.897 173.695 226.8 170.9C231.703 168.104 235.046 163.814 235.802 158.667C236.557 153.521 234.59 148.452 230.696 144.364C226.803 140.277 220.995 137.214 214.204 136.217Z" fill="#392909"/>
<path d="M237.82 147.706C240.214 147.602 271.356 143.012 273.326 141.565C274.96 140.364 279.303 127.936 278.892 125.635C278.547 123.705 264.104 116.761 261.427 117.382C258.749 118.005 249.823 127.812 246.648 130.433C243.473 133.054 234.097 142.878 233.406 145.403C232.627 148.247 235.426 147.81 237.82 147.706V147.706Z" fill="#F9E8C8" stroke="#F9E8C8" stroke-width="2.72865"/>
<path d="M225.209 143.993C224.9 142.001 237.434 97.9787 240.714 94.7238C243.993 91.4689 270.124 81.5395 272.894 82.0166C275.665 82.4937 279.778 90.8286 280.087 94.0948C280.395 97.3609 278.22 108.155 276.694 109.43C274.677 111.113 269.806 111.5 261.579 117.801C253.353 124.103 235.666 146.843 232.945 147.793C230.224 148.742 225.519 145.985 225.21 143.993H225.209Z" fill="#F9E8C8" stroke="#F9E8C8" stroke-width="2.72865" stroke-linecap="round" stroke-linejoin="round"/>
<path d="M212.039 166.412C212.231 168.523 207.669 189.272 205.417 190.594C203.165 191.917 177.628 197.815 176.821 196.064C175.923 194.119 190.908 176.886 192.846 175.145C194.784 173.404 207.811 163.796 209.735 164.013C211.909 164.258 212.038 166.412 212.038 166.412H212.039Z" fill="#F9E8C8" stroke="#F9E8C8" stroke-width="2.72865"/>
<path d="M208.255 158.425C206.398 157.917 183.45 154.855 181.386 154.683C179.322 154.511 159.137 155.211 156.916 155.451C154.383 155.725 146.824 158.413 145.112 159.481C143.4 160.549 134.967 171.353 134.076 173.3C133.186 175.246 133.748 181.888 134.844 183.471C135.973 185.101 159.664 194.181 162.577 194.027C165.49 193.874 208.172 164.937 208.926 163.128C209.68 161.318 210.386 159.009 208.254 158.426L208.255 158.425Z" fill="#F9E8C8" stroke="#F9E8C8" stroke-width="2.72865"/>
<path d="M260.82 154.011C260.558 147.276 248.517 148.071 242.04 148.686C233.959 149.454 225.513 153.772 220.282 159.619C217.097 163.18 212.186 174.914 214.331 177.955C216.477 180.995 231.683 180.212 241.452 174.793C251.221 169.375 261.084 160.747 260.821 154.012L260.82 154.011Z" fill="#E6A522" stroke="#E6A522" stroke-width="2.72865" stroke-linecap="round" stroke-linejoin="round"/>
</svg>
