<svg width="605" height="935" viewBox="0 0 605 935" fill="none" xmlns="http://www.w3.org/2000/svg">
<path d="M361.437 360.4L436.424 317.161L511.411 360.4L511.411 446.874L436.424 490.114L361.437 446.874L361.437 360.4Z" stroke="#E6A522" stroke-width="5"/>
<path d="M274.487 802.4L349.475 759.161L424.462 802.4L424.462 888.874L349.475 932.114L274.487 888.874L274.487 802.4Z" stroke="#E6A522" stroke-width="5"/>
<path d="M96.4365 802.4L171.424 759.161L246.411 802.4L246.411 888.874L171.424 932.114L96.4365 888.874L96.4365 802.4Z" stroke="#E6A522" stroke-width="5"/>
<path d="M185.804 649.126L260.792 605.886L335.779 649.126L335.779 735.6L260.792 778.839L185.804 735.6L185.804 649.126Z" stroke="#E6A522" stroke-width="5"/>
<path d="M5.48731 353.4L80.4746 310.161L155.462 353.4L155.462 439.874L80.4746 483.114L5.4873 439.874L5.48731 353.4Z" stroke="#E6A522" stroke-width="5"/>
<path d="M273.487 200.4L348.475 157.161L423.462 200.4L423.462 286.874L348.475 330.114L273.487 286.874L273.487 200.4Z" stroke="#E6A522" stroke-width="5"/>
<path d="M184.804 47.1256L259.792 3.88586L334.779 47.1256L334.779 133.6L259.792 176.839L184.804 133.6L184.804 47.1256Z" stroke="#E6A522" stroke-width="5"/>
<path d="M449.494 200.4L524.481 157.161L599.468 200.4L599.468 286.874L524.481 330.114L449.494 286.874L449.494 200.4Z" stroke="#E6A522" stroke-width="5"/>
<path d="M360.811 47.1256L435.798 3.88586L510.785 47.1256L510.785 133.6L435.798 176.839L360.811 133.6L360.811 47.1256Z" stroke="#E6A522" stroke-width="5"/>
<path d="M274.487 506.4L349.475 463.161L424.462 506.4L424.462 592.874L349.475 636.114L274.487 592.874L274.487 506.4Z" stroke="#E6A522" stroke-width="5"/>
<path d="M96.4365 506.4L171.424 463.161L246.411 506.4L246.411 592.874L171.424 636.114L96.4365 592.874L96.4365 506.4Z" stroke="#E6A522" stroke-width="5"/>
<path d="M185.804 353.126L260.792 309.886L335.779 353.126L335.779 439.6L260.792 482.839L185.804 439.6L185.804 353.126Z" stroke="#E6A522" stroke-width="5"/>
<path d="M5.49366 653.4L80.4809 610.161L155.468 653.4L155.468 739.874L80.4809 783.114L5.49365 739.874L5.49366 653.4Z" stroke="#E6A522" stroke-width="5"/>
<path d="M274.487 802.4L349.475 759.161L424.462 802.4L424.462 888.874L349.475 932.114L274.487 888.874L274.487 802.4Z" stroke="#E6A522" stroke-width="5"/>
<path d="M96.4365 802.4L171.424 759.161L246.411 802.4L246.411 888.874L171.424 932.114L96.4365 888.874L96.4365 802.4Z" stroke="#E6A522" stroke-width="5"/>
<path d="M180.67 210.334L205.974 255.788V210.334H218.626V273.465H203.444L180.67 235.587L178.951 265.335C178.712 269.479 177.233 273.456 174.705 276.751C172.177 280.047 168.717 282.511 164.771 283.823L162.958 284.426C162.958 284.426 165.695 280.823 167.143 275.532C168.064 272.166 168.019 266.435 168.019 262.933L168.019 210.619C168.019 210.544 168.049 210.471 168.102 210.418C168.156 210.365 168.228 210.335 168.304 210.335L180.67 210.334Z" fill="#E69522"/>
<path d="M143.723 210.334H160.593V227.169C160.593 229.401 159.704 231.542 158.122 233.121C156.54 234.7 154.395 235.587 152.158 235.587H135.289V218.752C135.289 216.519 136.177 214.378 137.759 212.799C139.341 211.221 141.486 210.334 143.723 210.334Z" fill="#F9F9F9"/>
<path d="M148.784 270.94V268.414H136.132V251.579C136.132 246.931 139.908 243.162 144.567 243.162H161.436V268.414C161.436 281.041 148.784 293.667 136.132 293.667C146.254 286.092 148.784 278.516 148.784 270.94V270.94Z" fill="#F9F9F9"/>
</svg>
