<?xml version="1.0" encoding="UTF-8"?>
<svg width="40.002" height="40" version="1.1" viewBox="0 0 10.584 10.583" xmlns="http://www.w3.org/2000/svg">
 <g transform="translate(-1.0583 -1.0583)">
  <g transform="matrix(.89069 0 0 .88889 -5.9044 -4.5861)">
   <path d="m14.288 6.35 3.608 6.4943v-6.4943h1.804v9.0199h-2.1648l-3.2472-5.4119-0.24511 4.2503a2.9642 2.9642 127.43 0 1-2.0219 2.6415l-0.25851 0.08617s0.39019-0.5149 0.59672-1.2708c0.13139-0.4809 0.12487-1.2997 0.12487-1.8001l-1e-6 -7.4743a0.040644 0.040644 135 0 1 0.04064-0.040644z" fill="#e69522" stroke-width=".29074"/>
   <path transform="matrix(.29705 0 0 .29766 6.629 5.1594)" d="m8.0488 4a4.0488 4.0406 0 0 0-4.0488 4.041v8.0801h8.0977a4.0488 4.0406 0 0 0 4.0488-4.041v-8.0801zm0 15.758c-2.2362 0-4.0488 1.8076-4.0488 4.0391v8.082h6.0723v1.2109c0 3.6364-1.2139 7.2737-6.0723 10.91 6.073 0 12.146-6.0604 12.146-12.121v-12.121z" fill="#f9f9f9"/>
  </g>
 </g>
</svg>
