<svg width="414" height="173" viewBox="0 0 414 173" fill="none" xmlns="http://www.w3.org/2000/svg">
<path d="M340.983 138.582L392.095 109.071L443.206 138.582L443.206 197.603L392.095 227.113L340.983 197.603L340.983 138.582Z" stroke="#E6A522" stroke-width="5"/>
<path d="M217.794 138.582L268.905 109.071L320.017 138.582L320.017 197.603L268.905 227.113L217.794 197.603L217.794 138.582Z" stroke="#E6A522" stroke-width="5"/>
<path d="M279.625 32.3973L330.737 2.88679L381.849 32.3973L381.849 91.4184L330.737 120.929L279.625 91.4184L279.625 32.3973Z" stroke="#E6A522" stroke-width="5"/>
<path d="M93.983 138.582L145.095 109.071L196.206 138.582L196.206 197.603L145.095 227.113L93.9829 197.603L93.983 138.582Z" stroke="#E6A522" stroke-width="5"/>
<path d="M-29.2063 138.582L21.9054 109.071L73.017 138.582L73.017 197.603L21.9054 227.113L-29.2063 197.603L-29.2063 138.582Z" stroke="#E6A522" stroke-width="5"/>
<path d="M32.6253 32.3973L83.7369 2.88679L134.849 32.3973L134.849 91.4184L83.7369 120.929L32.6253 91.4184L32.6253 32.3973Z" stroke="#E6A522" stroke-width="5"/>
<path d="M209.972 41.667L230.215 78.0306V41.667H240.337V92.1722H228.191L209.972 61.8693L208.597 85.668C208.405 88.983 207.222 92.1644 205.2 94.8011C203.177 97.4378 200.409 99.4086 197.253 100.459L195.802 100.941C195.802 100.941 197.991 98.058 199.15 93.8255C199.887 91.1328 199.851 86.5481 199.851 83.7462L199.851 41.8953C199.851 41.8349 199.875 41.777 199.918 41.7344C199.96 41.6917 200.018 41.6677 200.079 41.6677L209.972 41.667Z" fill="#E69522"/>
<path d="M180.414 41.667H193.91V55.135C193.91 56.9211 193.199 58.6339 191.933 59.8969C190.668 61.1598 188.951 61.8693 187.162 61.8693H173.667V48.4013C173.667 46.6152 174.377 44.9023 175.643 43.6394C176.908 42.3765 178.625 41.667 180.414 41.667Z" fill="#F9F9F9"/>
<path d="M184.463 90.1517V88.1315H174.341V74.6635C174.341 70.9444 177.362 67.9292 181.089 67.9292H194.585V88.1315C194.585 98.2326 184.463 108.334 174.341 108.334C182.439 102.273 184.463 96.2124 184.463 90.1517V90.1517Z" fill="#F9F9F9"/>
</svg>
